<svg width="159" height="162" viewBox="0 0 159 162" fill="none" xmlns="http://www.w3.org/2000/svg">
<g clip-path="url(#clip0_2693_105)">
<path d="M156.262 1.78369C156.792 1.78337 157.31 1.94023 157.751 2.23441C158.192 2.5286 158.536 2.94689 158.739 3.43638C158.942 3.92586 158.995 4.46455 158.891 4.98427C158.788 5.504 158.533 5.98142 158.158 6.35613C157.783 6.73084 157.306 6.986 156.786 7.08933C156.266 7.19266 155.727 7.13953 155.237 6.93664C154.748 6.73375 154.329 6.39023 154.035 5.94954C153.741 5.50885 153.584 4.99079 153.584 4.4609C153.584 4.10931 153.653 3.76113 153.787 3.43626C153.922 3.1114 154.119 2.81622 154.368 2.56759C154.617 2.31896 154.912 2.12176 155.237 1.98725C155.562 1.85275 155.91 1.78358 156.262 1.78369Z" fill="#1E81CE"/>
<path d="M151.501 154.125C152.031 154.125 152.549 154.282 152.989 154.577C153.429 154.871 153.772 155.289 153.975 155.779C154.178 156.268 154.231 156.807 154.127 157.326C154.024 157.846 153.768 158.323 153.394 158.697C153.019 159.072 152.542 159.327 152.022 159.43C151.503 159.533 150.964 159.48 150.474 159.278C149.985 159.075 149.566 158.732 149.272 158.292C148.977 157.852 148.82 157.334 148.82 156.804C148.82 156.452 148.889 156.104 149.024 155.779C149.158 155.453 149.356 155.158 149.605 154.909C149.854 154.66 150.149 154.463 150.475 154.328C150.8 154.193 151.149 154.124 151.501 154.125Z" fill="#1E81CE"/>
<path d="M3.57178 122.585L17.8582 110.981L89.8874 111.578C91.7644 105.918 95.1694 100.886 99.7265 97.0382C104.284 93.1903 109.816 90.6759 115.712 89.7725C121.608 88.8691 127.64 89.6118 133.141 91.9188C138.641 94.2257 143.398 98.0072 146.884 102.846C150.371 107.684 152.452 113.392 152.899 119.338C153.346 125.285 152.14 131.239 149.416 136.544C146.691 141.849 142.553 146.298 137.459 149.4C132.364 152.502 126.512 154.137 120.546 154.124C113.931 154.115 107.482 152.048 102.095 148.209C96.7075 144.37 92.649 138.951 90.4823 132.702L57.7431 132.406L50.6 139.547L43.457 132.406L36.3136 139.547L29.1676 132.406H18.4528L3.57178 122.585ZM138.404 121.991C138.434 118.431 137.406 114.941 135.452 111.965C133.498 108.988 130.705 106.657 127.426 105.268C124.147 103.878 120.529 103.491 117.03 104.157C113.532 104.823 110.309 106.51 107.77 109.007C105.23 111.504 103.489 114.697 102.765 118.183C102.041 121.669 102.368 125.292 103.703 128.592C105.039 131.893 107.323 134.723 110.268 136.726C113.213 138.729 116.686 139.813 120.247 139.843C122.613 139.867 124.961 139.424 127.155 138.539C129.349 137.654 131.347 136.344 133.034 134.686C134.721 133.027 136.063 131.052 136.985 128.874C137.907 126.695 138.389 124.356 138.404 121.991Z" fill="#9BC9FF"/>
<path d="M145.843 72.3013C146.373 72.301 146.892 72.4578 147.333 72.752C147.773 73.0462 148.117 73.4645 148.32 73.954C148.523 74.4434 148.576 74.9821 148.473 75.5019C148.37 76.0216 148.114 76.499 147.74 76.8737C147.365 77.2484 146.887 77.5036 146.367 77.6069C145.848 77.7102 145.309 77.6571 144.819 77.4542C144.329 77.2513 143.911 76.9078 143.617 76.4671C143.322 76.0264 143.165 75.5084 143.166 74.9785C143.166 74.2688 143.449 73.5883 143.951 73.0865C144.453 72.5846 145.133 72.3022 145.843 72.3013Z" fill="#1E81CE"/>
<path d="M133.939 20.2305C136.529 20.2304 139.061 20.9983 141.215 22.4368C143.369 23.8754 145.047 25.9202 146.039 28.3125C147.03 30.7048 147.289 33.3372 146.784 35.8769C146.279 38.4165 145.031 40.7494 143.2 42.5804C141.368 44.4114 139.035 45.6584 136.494 46.1636C133.954 46.6688 131.32 46.4095 128.927 45.4186C126.534 44.4277 124.489 42.7497 123.05 40.5967C121.61 38.4436 120.842 35.9124 120.842 33.323C120.843 29.8508 122.223 26.5209 124.679 24.0656C127.135 21.6104 130.465 20.2309 133.939 20.2305Z" fill="white"/>
<path d="M132.451 116.039C133.628 116.039 134.779 116.388 135.758 117.042C136.737 117.696 137.501 118.626 137.951 119.713C138.402 120.801 138.52 121.997 138.29 123.152C138.06 124.306 137.493 125.367 136.661 126.199C135.828 127.031 134.767 127.598 133.612 127.828C132.457 128.058 131.26 127.94 130.172 127.489C129.085 127.039 128.155 126.276 127.5 125.297C126.846 124.319 126.497 123.168 126.497 121.991C126.474 121.203 126.613 120.419 126.904 119.687C127.195 118.954 127.633 118.289 128.19 117.732C128.748 117.174 129.413 116.737 130.146 116.446C130.878 116.155 131.663 116.016 132.451 116.039Z" fill="white"/>
<path d="M112.509 52.0679C113.039 52.0681 113.557 52.2254 113.997 52.5198C114.438 52.8143 114.781 53.2326 114.984 53.722C115.186 54.2114 115.239 54.7498 115.136 55.2693C115.032 55.7887 114.777 56.2659 114.403 56.6404C114.028 57.0149 113.551 57.27 113.031 57.3734C112.511 57.4768 111.973 57.4239 111.483 57.2213C110.994 57.0187 110.575 56.6756 110.281 56.2353C109.986 55.7951 109.829 55.2774 109.829 54.7477C109.828 54.3957 109.898 54.0472 110.032 53.722C110.167 53.3968 110.364 53.1013 110.613 52.8524C110.862 52.6035 111.158 52.4061 111.483 52.2715C111.809 52.1369 112.157 52.0677 112.509 52.0679Z" fill="#1E81CE"/>
<path d="M91.9706 0C92.5003 3.49052e-05 93.018 0.157075 93.4584 0.451262C93.8987 0.745449 94.2419 1.16357 94.4446 1.65275C94.6473 2.14193 94.7003 2.6802 94.5969 3.19949C94.4935 3.71878 94.2385 4.19577 93.8639 4.57014C93.4894 4.94451 93.0122 5.19945 92.4927 5.30271C91.9732 5.40598 91.4348 5.35293 90.9455 5.15028C90.4562 4.94764 90.0379 4.60449 89.7437 4.16423C89.4495 3.72398 89.2925 3.20639 89.2925 2.67691C89.2929 1.96702 89.5752 1.28632 90.0773 0.784375C90.5795 0.282433 91.2605 0.000311722 91.9706 0Z" fill="#1E81CE"/>
<path d="M52.0886 10.4121C62.0371 10.4127 71.762 13.3623 80.0336 18.888C88.3051 24.4136 94.7519 32.2672 98.5586 41.4555C102.365 50.6438 103.361 60.7542 101.42 70.5082C99.4786 80.2622 94.6877 89.2217 87.6528 96.2538C80.618 103.286 71.6552 108.075 61.8978 110.015C52.1405 111.955 42.0268 110.959 32.8356 107.153C23.6445 103.347 15.7887 96.9017 10.2617 88.6325C4.7347 80.3634 1.78467 70.6415 1.78467 60.6964C1.81913 47.3702 7.13016 34.5998 16.5566 25.1771C25.9831 15.7543 38.758 10.4458 52.0886 10.4121Z" fill="white"/>
<path d="M73.5179 150.557C74.0476 150.557 74.5653 150.714 75.0057 151.008C75.4461 151.303 75.7893 151.721 75.992 152.21C76.1946 152.699 76.2476 153.237 76.1443 153.757C76.0409 154.276 75.7858 154.753 75.4113 155.127C75.0368 155.502 74.5596 155.757 74.0401 155.86C73.5206 155.963 72.9822 155.91 72.4929 155.707C72.0035 155.505 71.5853 155.162 71.2911 154.721C70.9968 154.281 70.8398 153.764 70.8398 153.234C70.8397 152.882 70.9089 152.534 71.0434 152.209C71.178 151.885 71.3752 151.589 71.624 151.341C71.8727 151.092 72.168 150.895 72.4929 150.761C72.8179 150.626 73.1662 150.557 73.5179 150.557Z" fill="#1E81CE"/>
<path d="M40.776 84.5005V77.0639H34.2279C32.9648 77.0639 31.7534 76.5623 30.8603 75.6694C29.9671 74.7765 29.4653 73.5656 29.4653 72.3029C29.4653 71.0402 29.9671 69.8292 30.8603 68.9363C31.7534 68.0435 32.9648 67.5419 34.2279 67.5419H35.1215V56.233C35.1215 51.8138 36.8776 47.5756 40.0035 44.4507C43.1294 41.3258 47.369 39.5703 51.7897 39.5703C56.2104 39.5703 60.45 41.3258 63.5759 44.4507C66.7018 47.5756 68.458 51.8138 68.458 56.233V67.5419H69.3518C70.6149 67.5419 71.8263 68.0435 72.7195 68.9363C73.6126 69.8292 74.1144 71.0402 74.1144 72.3029C74.1144 73.5656 73.6126 74.7765 72.7195 75.6694C71.8263 76.5623 70.6149 77.0639 69.3518 77.0639H62.8034V84.5005H40.776Z" fill="#9BC9FF"/>
<path d="M60.4213 53.8545C60.9509 53.8545 61.4687 54.0116 61.909 54.3058C62.3494 54.5999 62.6926 55.018 62.8953 55.5072C63.0979 55.9963 63.151 56.5346 63.0476 57.0539C62.9443 57.5732 62.6892 58.0502 62.3147 58.4246C61.9402 58.7989 61.4631 59.0539 60.9436 59.1572C60.4242 59.2605 59.8857 59.2075 59.3964 59.0049C58.9071 58.8023 58.4888 58.4592 58.1946 58.019C57.9003 57.5788 57.7432 57.0612 57.7432 56.5317C57.7416 56.1797 57.8098 55.8309 57.9438 55.5053C58.0778 55.1798 58.275 54.884 58.524 54.6351C58.773 54.3862 59.0689 54.1891 59.3945 54.0551C59.7202 53.9211 60.0692 53.8529 60.4213 53.8545Z" fill="#1E81CE"/>
<path d="M43.753 53.8544C44.4633 53.8544 45.1444 54.1364 45.6466 54.6385C46.1488 55.1405 46.431 55.8214 46.431 56.5314C46.431 57.2414 46.1488 57.9224 45.6466 58.4244C45.1444 58.9265 44.4633 59.2085 43.753 59.2085C43.3775 59.2483 42.9978 59.2088 42.6386 59.0924C42.2794 58.976 41.9487 58.7854 41.6679 58.533C41.3872 58.2805 41.1627 57.9719 41.009 57.627C40.8553 57.2822 40.7759 56.9089 40.7759 56.5314C40.7759 56.154 40.8553 55.7807 41.009 55.4359C41.1627 55.091 41.3872 54.7824 41.6679 54.5299C41.9487 54.2775 42.2794 54.0869 42.6386 53.9705C42.9978 53.8541 43.3775 53.8146 43.753 53.8544Z" fill="#1E81CE"/>
<path d="M18.4528 144.901C20.4265 144.901 22.3194 145.685 23.715 147.08C25.1107 148.475 25.8948 150.367 25.8948 152.34C25.8948 154.314 25.1107 156.206 23.715 157.601C22.3194 158.996 20.4265 159.78 18.4528 159.78C16.479 159.78 14.5861 158.996 13.1905 157.601C11.7948 156.206 11.0107 154.314 11.0107 152.34C11.0107 150.367 11.7948 148.475 13.1905 147.08C14.5861 145.685 16.479 144.901 18.4528 144.901Z" fill="white"/>
<path d="M13.9903 7.43652C14.5203 7.43679 15.0383 7.59415 15.4788 7.88871C15.9192 8.18326 16.2625 8.60178 16.465 9.09134C16.6675 9.58089 16.7203 10.1195 16.6166 10.639C16.513 11.1586 16.2575 11.6357 15.8826 12.0101C15.5076 12.3845 15.0301 12.6394 14.5102 12.7424C13.9904 12.8455 13.4517 12.7921 12.9622 12.5891C12.4727 12.3861 12.0544 12.0425 11.7603 11.6018C11.4661 11.1612 11.3093 10.6432 11.3096 10.1134C11.3103 9.40319 11.5931 8.72228 12.0958 8.22034C12.5984 7.7184 13.2799 7.43648 13.9903 7.43652Z" fill="#1E81CE"/>
<path d="M2.6781 135.678C3.20816 135.677 3.7264 135.834 4.16724 136.129C4.60807 136.423 4.95171 136.841 5.15466 137.331C5.35762 137.82 5.41077 138.359 5.3074 138.879C5.20404 139.398 4.94879 139.876 4.57396 140.25C4.19912 140.625 3.72155 140.88 3.20165 140.983C2.68175 141.087 2.14289 141.034 1.65324 140.831C1.16359 140.628 0.745153 140.284 0.45087 139.843C0.156587 139.403 -0.000319587 138.885 4.88718e-07 138.355C0.000896008 137.645 0.283349 136.965 0.785405 136.463C1.28746 135.961 1.96813 135.679 2.6781 135.678Z" fill="#1E81CE"/>
<path d="M68.1593 124.372H3.57183C3.09823 124.372 2.64403 124.184 2.30915 123.849C1.97427 123.514 1.78613 123.06 1.78613 122.587C1.78613 122.113 1.97427 121.659 2.30915 121.325C2.64403 120.99 3.09823 120.802 3.57183 120.802H68.1593C68.6329 120.802 69.0871 120.99 69.4219 121.325C69.7568 121.659 69.9449 122.113 69.9449 122.587C69.9449 123.06 69.7568 123.514 69.4219 123.849C69.0871 124.184 68.6329 124.372 68.1593 124.372Z" fill="#1E81CE"/>
<path d="M120.546 141.629C117.929 141.661 115.334 141.148 112.925 140.123C110.517 139.099 108.348 137.585 106.556 135.678C102.947 131.914 100.923 126.908 100.901 121.695C100.946 116.5 103.03 111.531 106.704 107.858C110.379 104.184 115.35 102.101 120.546 102.056C123.158 102.054 125.744 102.58 128.148 103.602C130.552 104.624 132.724 106.122 134.534 108.005C138.142 111.77 140.166 116.777 140.188 121.991C140.143 127.185 138.059 132.153 134.386 135.826C130.712 139.5 125.742 141.583 120.546 141.629ZM120.546 105.923C118.433 105.914 116.339 106.323 114.385 107.128C112.431 107.932 110.655 109.116 109.161 110.609C107.667 112.103 106.483 113.878 105.678 115.831C104.874 117.785 104.464 119.878 104.473 121.991C104.429 124.104 104.831 126.203 105.651 128.151C106.471 130.099 107.692 131.853 109.234 133.299C112.239 136.301 116.298 138.009 120.546 138.059C122.659 138.068 124.753 137.658 126.707 136.853C128.661 136.049 130.436 134.866 131.93 133.372C133.424 131.878 134.608 130.103 135.412 128.15C136.216 126.196 136.626 124.103 136.617 121.991C136.66 119.878 136.259 117.78 135.438 115.832C134.618 113.884 133.397 112.131 131.856 110.685C130.428 109.12 128.677 107.884 126.724 107.062C124.772 106.239 122.664 105.851 120.546 105.923Z" fill="#1E81CE"/>
<path d="M132.451 129.726C131.432 129.733 130.423 129.538 129.481 129.152C128.539 128.766 127.683 128.196 126.963 127.477C126.243 126.757 125.673 125.901 125.287 124.96C124.901 124.018 124.705 123.009 124.713 121.991C124.749 119.951 125.576 118.004 127.019 116.561C128.463 115.118 130.41 114.292 132.451 114.255C134.503 114.255 136.471 115.07 137.922 116.521C139.373 117.972 140.189 119.939 140.189 121.991C140.189 124.042 139.373 126.01 137.922 127.461C136.471 128.911 134.503 129.726 132.451 129.726ZM132.451 117.826C131.346 117.826 130.286 118.265 129.505 119.046C128.723 119.827 128.284 120.886 128.284 121.991C128.284 123.095 128.723 124.155 129.505 124.936C130.286 125.717 131.346 126.156 132.451 126.156C133.548 126.133 134.595 125.687 135.371 124.911C136.148 124.134 136.594 123.088 136.617 121.991C136.546 120.91 136.084 119.891 135.317 119.125C134.551 118.359 133.532 117.897 132.451 117.826Z" fill="#1E81CE"/>
<path d="M120.546 155.911C113.747 155.903 107.107 153.858 101.482 150.039C95.8577 146.22 91.5076 140.804 88.9936 134.489L58.039 134.19L51.4905 140.736C51.1637 141.05 50.7487 141.258 50.301 141.331C50.0708 141.327 49.8444 141.271 49.6385 141.168C49.4327 141.066 49.2525 140.918 49.1114 140.736L43.1579 134.784L37.2044 140.736C36.8774 141.05 36.4625 141.258 36.0148 141.331C35.7846 141.327 35.5583 141.271 35.3524 141.168C35.1465 141.066 34.9663 140.918 34.8252 140.736L27.9779 134.19H17.858C17.6965 134.209 17.5326 134.193 17.378 134.142C17.2235 134.091 17.0823 134.006 16.9645 133.894L2.67803 124.073C2.40451 123.934 2.17569 123.72 2.01768 123.457C1.85968 123.194 1.77886 122.892 1.78445 122.585C1.79611 122.033 2.00855 121.504 2.38204 121.097L16.6685 109.493C16.9645 109.197 17.2631 109.197 17.858 109.197L88.6976 109.792C91.1743 103.368 95.5474 97.8496 101.236 93.9699C106.925 90.0901 113.66 88.0324 120.546 88.0703H120.842C125.311 88.0703 129.735 88.9525 133.862 90.6665C137.988 92.3804 141.736 94.8922 144.888 98.0578C148.041 101.223 150.538 104.98 152.234 109.113C153.931 113.245 154.794 117.672 154.774 122.139C154.755 126.606 153.853 131.025 152.121 135.143C150.388 139.261 147.859 142.996 144.679 146.134C141.498 149.271 137.729 151.751 133.588 153.428C129.447 155.106 125.015 155.95 120.546 155.911ZM57.4443 130.619L90.1862 130.918C90.5656 130.927 90.9346 131.044 91.2505 131.255C91.5663 131.465 91.816 131.761 91.9707 132.107C94.1066 137.928 97.9462 142.971 102.99 146.58C108.033 150.189 114.047 152.196 120.247 152.34H120.546C128.556 152.374 136.252 149.228 141.944 143.593C147.636 137.959 150.858 130.297 150.903 122.289C150.898 114.265 147.748 106.563 142.128 100.834C136.509 95.1042 128.867 91.8041 120.842 91.6408H120.546C114.242 91.6809 108.106 93.6781 102.987 97.3564C97.8675 101.035 94.018 106.212 91.9707 112.173C91.8675 112.553 91.6298 112.884 91.3017 113.102C90.9735 113.321 90.5772 113.413 90.1862 113.362L18.7516 112.767L6.84436 122.585L18.4527 130.619H28.5728C28.8032 130.624 29.0296 130.68 29.2358 130.783C29.442 130.886 29.6229 131.033 29.7653 131.214L35.7159 137.166L41.6697 131.214C41.9987 130.901 42.414 130.694 42.8619 130.619C43.0919 130.624 43.3179 130.68 43.5236 130.783C43.7294 130.886 43.9097 131.033 44.0515 131.214L50.0052 137.166L55.9558 131.214C56.3639 130.843 56.8926 130.632 57.4443 130.619Z" fill="#1E81CE"/>
<path d="M49.1115 86.287C48.6479 86.2555 48.2114 86.0571 47.8828 85.7287C47.5543 85.4002 47.3559 84.9639 47.3244 84.5004V79.7407C47.3215 79.5045 47.3655 79.27 47.454 79.0508C47.5425 78.8317 47.6735 78.6323 47.8397 78.4642C48.0058 78.2961 48.2036 78.1627 48.4217 78.0716C48.6398 77.9805 48.8738 77.9336 49.1102 77.9336C49.3466 77.9336 49.5806 77.9805 49.7987 78.0716C50.0168 78.1627 50.2146 78.2961 50.3808 78.4642C50.5469 78.6323 50.678 78.8317 50.7664 79.0508C50.8549 79.27 50.8989 79.5045 50.8961 79.7407V84.5004C51.195 85.3937 50.3011 86.287 49.1115 86.287Z" fill="#1E81CE"/>
<path d="M54.7662 86.287C54.3025 86.2555 53.8661 86.0571 53.5375 85.7287C53.2089 85.4002 53.0105 84.9639 52.979 84.5004V79.7407C52.9781 79.5057 53.0235 79.2728 53.1129 79.0553C53.2022 78.8379 53.3336 78.6402 53.4995 78.4737C53.6654 78.3071 53.8626 78.175 54.0798 78.0848C54.2969 77.9947 54.5297 77.9482 54.7648 77.9482C55 77.9482 55.2328 77.9947 55.4499 78.0848C55.6671 78.175 55.8643 78.3071 56.0302 78.4737C56.1961 78.6402 56.3275 78.8379 56.4168 79.0553C56.5061 79.2728 56.5516 79.5057 56.5507 79.7407V84.5004C56.5608 84.7375 56.5215 84.9741 56.4354 85.1952C56.3494 85.4164 56.2183 85.6173 56.0506 85.7852C55.8829 85.9531 55.6821 86.0844 55.461 86.1708C55.2399 86.2571 55.0033 86.2967 54.7662 86.287Z" fill="#1E81CE"/>
<path d="M63.0994 86.2867H40.776C40.3129 86.2546 39.8771 86.056 39.5491 85.7276C39.2211 85.3992 39.0232 84.9632 38.9918 84.5002V78.8472H34.2279C32.4962 78.8319 30.8397 78.1372 29.6154 76.9127C28.391 75.6883 27.6968 74.0321 27.6821 72.301C27.6971 70.7172 28.2736 69.1902 29.3091 67.9915C30.3445 66.7928 31.7718 66.0002 33.337 65.7547V56.5315C33.3948 51.6459 35.3096 46.9652 38.6929 43.4391C40.4 41.7072 42.4409 40.3397 44.6921 39.4194C46.9433 38.4991 49.3579 38.0451 51.7897 38.0849C56.7539 38.1142 61.5065 40.0986 65.0168 43.6077C68.5271 47.1168 70.5121 51.8678 70.5414 56.8304V66.0535C72.1065 66.2991 73.5338 67.0917 74.5692 68.2904C75.6046 69.4891 76.1811 71.0161 76.196 72.5998C76.1807 74.3312 75.4859 75.9874 74.2611 77.2118C73.0363 78.4362 71.3796 79.1308 69.6476 79.146H64.8866V84.7987C65.1826 85.3934 64.2916 86.2867 63.0994 86.2867ZM42.8621 82.7162H61.6109V77.0636C61.6424 76.6001 61.8407 76.1637 62.1693 75.8351C62.4979 75.5066 62.9344 75.3082 63.3981 75.2767H69.9465C70.6571 75.2767 71.3386 74.9945 71.8411 74.4922C72.3436 73.9899 72.6259 73.3086 72.6259 72.5982C72.6259 71.8878 72.3436 71.2065 71.8411 70.7042C71.3386 70.2018 70.6571 69.9196 69.9465 69.9196H69.0529C68.5899 69.8887 68.1538 69.6909 67.8256 69.3628C67.4974 69.0348 67.2994 68.5989 67.2684 68.136V56.8304C67.2879 54.8711 66.9162 52.9275 66.1751 51.1135C65.434 49.2996 64.3384 47.6516 62.9525 46.266C61.5665 44.8805 59.918 43.7852 58.1034 43.0444C56.2888 42.3035 54.3447 41.9319 52.3847 41.9513C50.4328 41.9259 48.4973 42.31 46.7031 43.0789C44.909 43.8477 43.2961 44.9841 41.9686 46.4148C39.1879 49.1782 37.5874 52.9117 37.5033 56.8304V68.136C37.4717 68.5991 37.2732 69.0351 36.9445 69.3631C36.6159 69.6911 36.1795 69.8888 35.7161 69.9196H34.8255C34.1149 69.9196 33.4333 70.2018 32.9309 70.7042C32.4284 71.2065 32.1461 71.8878 32.1461 72.5982C32.1461 73.3086 32.4284 73.9899 32.9309 74.4922C33.4333 74.9945 34.1149 75.2767 34.8255 75.2767H40.776C41.2397 75.3082 41.6763 75.5065 42.005 75.835C42.3336 76.1636 42.5321 76.6 42.5635 77.0636V82.7162H42.8621Z" fill="#1E81CE"/>
<path d="M63.694 46.4148C63.464 46.41 63.238 46.3542 63.0323 46.2514C62.8266 46.1486 62.6463 46.0013 62.5044 45.8203C62.2132 45.4348 62.0557 44.9648 62.0557 44.4817C62.0557 43.9986 62.2132 43.5287 62.5044 43.1431L67.8633 37.7861C68.2489 37.4949 68.719 37.3374 69.2023 37.3374C69.6856 37.3374 70.1557 37.4949 70.5414 37.7861C70.8326 38.1716 70.9901 38.6416 70.9901 39.1247C70.9901 39.6078 70.8326 40.0777 70.5414 40.4633L65.1825 45.8203C64.5876 46.1162 64.2916 46.4148 63.694 46.4148Z" fill="#1E81CE"/>
<path d="M74.4116 40.7623H69.0527C68.5894 40.7306 68.1532 40.5321 67.8251 40.2036C67.497 39.875 67.2991 39.4387 67.2682 38.9754V33.6213C67.2652 33.3849 67.3091 33.1503 67.3975 32.9311C67.4859 32.7118 67.617 32.5123 67.7831 32.344C67.9492 32.1758 68.1471 32.0423 68.3653 31.9511C68.5835 31.8599 68.8176 31.813 69.0541 31.813C69.2905 31.813 69.5246 31.8599 69.7428 31.9511C69.961 32.0423 70.1589 32.1758 70.325 32.344C70.4911 32.5123 70.6222 32.7118 70.7106 32.9311C70.799 33.1503 70.8429 33.3849 70.8399 33.6213V36.893H74.1126C74.5763 36.9245 75.0128 37.1228 75.3414 37.4514C75.67 37.7799 75.8684 38.2163 75.8998 38.6798C76.1958 40.1675 75.3022 40.7623 74.4116 40.7623Z" fill="#1E81CE"/>
<path d="M40.4804 46.4148C40.25 46.4101 40.0235 46.3543 39.8173 46.2515C39.6111 46.1487 39.4303 46.0015 39.2878 45.8204L33.9319 40.4633C33.6406 40.0778 33.4829 39.6078 33.4829 39.1247C33.4829 38.6415 33.6406 38.1716 33.9319 37.7861C34.3175 37.4949 34.7876 37.3374 35.2708 37.3374C35.7541 37.3374 36.2241 37.4949 36.6097 37.7861L41.9686 43.1431C42.26 43.5286 42.4176 43.9986 42.4176 44.4817C42.4176 44.9649 42.26 45.4349 41.9686 45.8204C41.5071 46.0959 41.0048 46.2966 40.4804 46.4148Z" fill="#1E81CE"/>
<path d="M34.8255 40.7625H29.4667C28.997 40.7565 28.5486 40.5657 28.2186 40.2316C27.8886 39.8974 27.7036 39.4468 27.7036 38.9773C27.7036 38.5077 27.8886 38.0571 28.2186 37.7229C28.5486 37.3888 28.997 37.198 29.4667 37.192H32.7424V33.9204C32.7424 33.6859 32.7885 33.4538 32.8783 33.2372C32.968 33.0206 33.0996 32.8239 33.2654 32.6581C33.4312 32.4923 33.628 32.3608 33.8447 32.2711C34.0614 32.1814 34.2936 32.1353 34.5281 32.1353C34.7626 32.1353 34.9948 32.1814 35.2114 32.2711C35.4281 32.3608 35.6249 32.4923 35.7907 32.6581C35.9566 32.8239 36.0881 33.0206 36.1778 33.2372C36.2676 33.4538 36.3137 33.6859 36.3137 33.9204V38.9756C36.9087 40.1678 36.0151 40.7625 34.8255 40.7625Z" fill="#1E81CE"/>
<path d="M68.7536 84.2043C68.5233 84.1996 68.297 84.1435 68.0912 84.0402C67.8854 83.9368 67.7053 83.7888 67.564 83.6069L62.2081 78.2528C61.8542 77.8975 61.6557 77.4164 61.6563 76.915C61.6568 76.4136 61.8563 75.9329 62.2109 75.5784C62.5656 75.2239 63.0464 75.0245 63.548 75.0239C64.0495 75.0234 64.5308 75.2218 64.8862 75.5756L70.2421 80.9297C70.5347 81.3147 70.6931 81.7849 70.6931 82.2683C70.6931 82.7518 70.5347 83.222 70.2421 83.6069C70.0518 83.808 69.8202 83.9655 69.5633 84.0686C69.3064 84.1717 69.0301 84.218 68.7536 84.2043Z" fill="#1E81CE"/>
<path d="M68.754 89.5586C68.2913 89.5266 67.8558 89.3284 67.5278 89.0006C67.1999 88.6728 67.0017 88.2374 66.9697 87.7749V82.4179C67.0012 81.9551 67.1992 81.5195 67.5273 81.1915C67.8553 80.8635 68.2911 80.6654 68.754 80.6339H74.1128C74.3492 80.6309 74.5839 80.6748 74.8033 80.7632C75.0226 80.8516 75.2222 80.9826 75.3905 81.1486C75.5588 81.3147 75.6924 81.5126 75.7836 81.7307C75.8748 81.9488 75.9217 82.1828 75.9217 82.4192C75.9217 82.6556 75.8748 82.8896 75.7836 83.1077C75.6924 83.3258 75.5588 83.5236 75.3905 83.6897C75.2222 83.8558 75.0226 83.9868 74.8033 84.0752C74.5839 84.1635 74.3492 84.2075 74.1128 84.2044H70.5414V87.4761C70.5676 87.9861 70.3966 88.4867 70.0639 88.8743C69.7312 89.2619 69.2622 89.5069 68.754 89.5586Z" fill="#1E81CE"/>
<path d="M35.4201 84.2044C35.1894 84.1997 34.9627 84.1437 34.7565 84.0403C34.5502 83.937 34.3696 83.789 34.2279 83.607C33.9365 83.2215 33.7788 82.7516 33.7788 82.2684C33.7788 81.7853 33.9365 81.3153 34.2279 80.9298L39.5864 75.5757L40.776 76.7649L41.9685 77.954L36.9086 83.607C36.7327 83.826 36.5033 83.996 36.2426 84.1006C35.9819 84.2052 35.6986 84.241 35.4201 84.2044Z" fill="#1E81CE"/>
<path d="M35.4201 89.5585C34.9569 89.5272 34.5208 89.3293 34.1922 89.0014C33.8637 88.6736 33.665 88.2379 33.6329 87.7749V84.5003H30.3602C30.1237 84.5034 29.889 84.4594 29.6697 84.3711C29.4504 84.2827 29.2508 84.1517 29.0825 83.9856C28.9142 83.8195 28.7806 83.6217 28.6894 83.4036C28.5982 83.1855 28.5513 82.9515 28.5513 82.7151C28.5513 82.4787 28.5982 82.2447 28.6894 82.0265C28.7806 81.8084 28.9142 81.6106 29.0825 81.4445C29.2508 81.2785 29.4504 81.1474 29.6697 81.0591C29.889 80.9707 30.1237 80.9268 30.3602 80.9298H35.7161C36.1797 80.9613 36.6162 81.1597 36.9448 81.4881C37.2733 81.8166 37.4717 82.2529 37.5033 82.7164V88.0705C37.3375 88.4936 37.0525 88.8595 36.6826 89.1237C36.3128 89.3878 35.8742 89.5389 35.4201 89.5585Z" fill="#1E81CE"/>
<path d="M58.3379 69.6242H45.2411C44.7714 69.6182 44.323 69.4274 43.9931 69.0933C43.6631 68.7591 43.478 68.3085 43.478 67.839C43.478 67.3694 43.6631 66.9188 43.9931 66.5846C44.323 66.2505 44.7714 66.0597 45.2411 66.0537H58.3379C58.8076 66.0597 59.256 66.2505 59.586 66.5846C59.916 66.9188 60.101 67.3694 60.101 67.839C60.101 68.3085 59.916 68.7591 59.586 69.0933C59.256 69.4274 58.8076 69.6182 58.3379 69.6242Z" fill="#1E81CE"/>
<path d="M52.0887 112.768C41.7869 112.768 31.7164 109.714 23.1506 103.993C14.5848 98.272 7.90853 90.1401 3.96594 80.6257C0.023351 71.1114 -1.00844 60.642 1.00106 50.5415C3.01055 40.441 7.97106 31.163 15.2553 23.8807C22.5396 16.5985 31.8204 11.6391 41.9242 9.62972C52.0279 7.62032 62.5009 8.65117 72.0186 12.5919C81.5363 16.5327 89.6713 23.2063 95.3949 31.7689C101.119 40.3315 104.174 50.3985 104.174 60.6968C104.109 74.4863 98.6003 87.6924 88.8466 97.4434C79.0929 107.194 65.8827 112.702 52.0887 112.768ZM52.0887 12.495C42.468 12.4361 33.0469 15.2379 25.023 20.5444C16.999 25.8509 10.7344 33.4225 7.02547 42.2967C3.3165 51.171 2.33061 60.9473 4.19309 70.3831C6.05558 79.8188 10.6824 88.488 17.4854 95.2887C24.2884 102.089 32.9604 106.715 42.3993 108.577C51.8382 110.438 61.6177 109.453 70.495 105.745C79.3722 102.037 86.9463 95.7748 92.2545 87.7535C97.5628 79.7322 100.366 70.3144 100.307 60.6968C100.226 47.9378 95.12 35.7243 86.0948 26.7021C77.0696 17.6799 64.852 12.5756 52.0887 12.495Z" fill="#1E81CE"/>
<path d="M80.6611 91.0465C80.4311 91.042 80.2049 90.9863 79.9991 90.8834C79.7934 90.7805 79.6131 90.633 79.4715 90.4517C79.179 90.0668 79.0206 89.5967 79.0206 89.1133C79.0206 88.6298 79.179 88.1597 79.4715 87.7748C86.6235 80.5164 90.6323 70.737 90.6323 60.5487C90.6323 50.3605 86.6235 40.5811 79.4715 33.3226C79.1789 32.9377 79.0205 32.4675 79.0205 31.984C79.0205 31.5006 79.1789 31.0304 79.4715 30.6454C79.8572 30.3543 80.3273 30.1968 80.8106 30.1968C81.2939 30.1968 81.764 30.3543 82.1496 30.6454C90.016 38.6117 94.4268 49.3549 94.4268 60.5486C94.4268 71.7423 90.016 82.4855 82.1496 90.4517C81.9588 90.6519 81.727 90.8086 81.4702 90.9112C81.2133 91.0138 80.9374 91.06 80.6611 91.0465Z" fill="#1E81CE"/>
<path d="M23.5128 91.0464C23.2828 91.0416 23.0568 90.9858 22.851 90.8829C22.6453 90.7801 22.465 90.6328 22.3232 90.4517C14.4568 82.4855 10.0459 71.7423 10.0459 60.5485C10.0459 49.3548 14.4568 38.6115 22.3232 30.6454C22.7089 30.3543 23.1789 30.1968 23.6622 30.1968C24.1454 30.1968 24.6154 30.3543 25.0011 30.6454C25.8946 31.2401 25.596 32.432 25.0011 33.3226C17.8491 40.581 13.8403 50.3604 13.8403 60.5487C13.8403 70.7369 17.8491 80.5163 25.0011 87.7747C25.2924 88.1602 25.4501 88.6301 25.4501 89.1132C25.4501 89.5963 25.2924 90.0662 25.0011 90.4517C24.8104 90.652 24.5787 90.8088 24.3219 90.9114C24.0651 91.0141 23.7891 91.0601 23.5128 91.0464Z" fill="#1E81CE"/>
<path d="M18.4526 161.564C16.6279 161.563 14.8444 161.022 13.3275 160.008C11.8106 158.994 10.6284 157.554 9.93054 155.868C9.23264 154.183 9.05031 152.328 9.40662 150.539C9.76293 148.751 10.6419 147.107 11.9323 145.818C13.2227 144.528 14.8667 143.65 16.6563 143.294C18.446 142.939 20.301 143.121 21.9867 143.82C23.6725 144.518 25.1133 145.7 26.127 147.216C27.1407 148.733 27.6817 150.516 27.6818 152.34C27.726 153.564 27.5176 154.783 27.0694 155.922C26.6212 157.062 25.943 158.096 25.0769 158.962C24.2109 159.827 23.1757 160.505 22.0359 160.953C20.8962 161.4 19.6764 161.608 18.4526 161.564ZM18.4526 146.688C16.9529 146.688 15.5146 147.283 14.4541 148.343C13.3937 149.403 12.7979 150.841 12.7979 152.34C12.7979 153.84 13.3937 155.278 14.4541 156.338C15.5146 157.398 16.9529 157.993 18.4526 157.993C19.9523 157.993 21.3906 157.398 22.4511 156.338C23.5115 155.278 24.1073 153.84 24.1073 152.34C24.1073 150.841 23.5115 149.403 22.4511 148.343C21.3906 147.283 19.9523 146.688 18.4526 146.688Z" fill="#1E81CE"/>
<path d="M133.939 48.2018C130.995 48.2021 128.118 47.3298 125.67 45.6953C123.223 44.0608 121.315 41.7374 120.188 39.0189C119.061 36.3005 118.766 33.3091 119.34 30.423C119.914 27.5369 121.332 24.8858 123.413 22.8049C125.494 20.724 128.146 19.3068 131.033 18.7324C133.919 18.1581 136.912 18.4525 139.631 19.5783C142.351 20.7041 144.676 22.6108 146.311 25.0573C147.947 27.5038 148.82 30.3802 148.82 33.3227C148.809 37.2651 147.238 41.043 144.45 43.8309C141.662 46.6189 137.883 48.1903 133.939 48.2018ZM133.939 22.0168C131.702 22.0165 129.515 22.6795 127.654 23.9219C125.794 25.1642 124.344 26.9301 123.488 28.9963C122.632 31.0625 122.408 33.3361 122.844 35.5296C123.28 37.7232 124.358 39.738 125.94 41.3195C127.522 42.9009 129.537 43.9778 131.731 44.4141C133.926 44.8503 136.2 44.6263 138.267 43.7703C140.334 42.9143 142.1 41.4649 143.343 39.6052C144.586 37.7455 145.249 35.5592 145.249 33.3227C145.2 30.3394 143.993 27.4919 141.882 25.3822C139.772 23.2724 136.923 22.0655 133.939 22.0168Z" fill="#1E81CE"/>
</g>
<defs>
<clipPath id="clip0_2693_105">
<rect width="158.94" height="161.564" fill="white"/>
</clipPath>
</defs>
</svg>
