<svg width="159" height="160" viewBox="0 0 159 160" fill="none" xmlns="http://www.w3.org/2000/svg">
<g clip-path="url(#clip0_2693_5)">
<path d="M155.92 75.3291C156.457 75.3293 156.983 75.4884 157.43 75.7865C157.877 76.0845 158.226 76.5081 158.431 77.0035C158.637 77.499 158.691 78.0442 158.586 78.5701C158.481 79.0961 158.222 79.5792 157.842 79.9584C157.461 80.3376 156.977 80.5958 156.449 80.7005C155.922 80.8052 155.375 80.7515 154.878 80.5464C154.381 80.3413 153.957 79.9938 153.658 79.548C153.359 79.1022 153.199 78.578 153.199 78.0418C153.199 77.6855 153.269 77.3328 153.406 77.0036C153.543 76.6745 153.743 76.3754 153.996 76.1235C154.248 75.8716 154.548 75.6718 154.878 75.5355C155.209 75.3992 155.562 75.3291 155.92 75.3291Z" fill="#1E81CE"/>
<path d="M152.294 152.468C152.831 152.468 153.357 152.627 153.804 152.925C154.251 153.223 154.6 153.647 154.805 154.142C155.011 154.638 155.065 155.183 154.96 155.709C154.855 156.235 154.595 156.718 154.215 157.097C153.835 157.476 153.35 157.735 152.823 157.839C152.295 157.944 151.748 157.89 151.251 157.684C150.755 157.479 150.33 157.131 150.031 156.685C149.732 156.239 149.573 155.715 149.573 155.179C149.573 154.823 149.644 154.47 149.78 154.141C149.917 153.812 150.117 153.513 150.37 153.261C150.623 153.009 150.923 152.81 151.253 152.673C151.583 152.537 151.936 152.467 152.294 152.468Z" fill="#1E81CE"/>
<path d="M145.645 24.1057C147.916 24.1058 150.136 24.7775 152.025 26.0357C153.913 27.294 155.384 29.0823 156.253 31.1746C157.122 33.2668 157.35 35.5691 156.906 37.7901C156.463 40.0112 155.37 42.0513 153.764 43.6525C152.158 45.2538 150.112 46.3442 147.884 46.7858C145.657 47.2275 143.348 47.0006 141.25 46.1339C139.152 45.2671 137.359 43.7994 136.097 41.9164C134.836 40.0334 134.162 37.8196 134.163 35.555C134.162 34.0513 134.459 32.5623 135.037 31.1731C135.614 29.7839 136.459 28.5216 137.526 27.4584C138.592 26.3952 139.858 25.5519 141.251 24.9767C142.644 24.4014 144.138 24.1054 145.645 24.1057Z" fill="#9BC9FF"/>
<path d="M2.11475 119.321L16.6199 108.474L89.7447 109.078C91.7171 103.4 95.2205 98.3749 99.87 94.5533C104.52 90.7318 110.135 88.262 116.101 87.4153C122.066 86.5686 128.15 87.3777 133.684 89.7538C139.218 92.1298 143.988 95.9809 147.471 100.884C150.954 105.787 153.014 111.552 153.425 117.547C153.837 123.541 152.583 129.533 149.803 134.863C147.023 140.193 142.823 144.657 137.665 147.762C132.507 150.868 126.59 152.496 120.565 152.468C113.849 152.458 107.303 150.364 101.834 146.476C96.3654 142.588 92.2458 137.1 90.0466 130.772L56.8083 130.471L49.2531 137.702L42.0014 130.471L34.7494 137.702L27.4977 130.471H16.6199L2.11475 119.321ZM138.998 119.624C138.984 114.833 137.069 110.242 133.672 106.855C130.275 103.467 125.671 101.558 120.867 101.544C117.238 101.514 113.683 102.562 110.654 104.553C107.624 106.545 105.257 109.391 103.855 112.728C102.453 116.065 102.078 119.743 102.778 123.293C103.479 126.844 105.223 130.106 107.789 132.665C110.355 135.223 113.626 136.962 117.187 137.661C120.747 138.36 124.435 137.986 127.782 136.588C131.129 135.189 133.982 132.829 135.98 129.808C137.977 126.787 139.028 123.242 138.998 119.624Z" fill="white"/>
<path d="M144.738 6.54443e-08C145.276 -0.000117752 145.802 0.158844 146.249 0.456779C146.697 0.754714 147.045 1.17824 147.251 1.67378C147.457 2.16933 147.511 2.71464 147.406 3.24073C147.301 3.76682 147.042 4.25007 146.662 4.62935C146.281 5.00863 145.797 5.2669 145.269 5.3715C144.742 5.4761 144.195 5.42232 143.698 5.21698C143.201 5.01163 142.776 4.66394 142.478 4.21788C142.179 3.77182 142.019 3.24743 142.02 2.71103C142.02 1.99201 142.306 1.30245 142.816 0.794043C143.326 0.285632 144.017 7.9634e-06 144.738 6.54443e-08Z" fill="#1E81CE"/>
<path d="M138.997 119.623C138.997 120.815 138.643 121.98 137.979 122.971C137.315 123.962 136.371 124.735 135.266 125.191C134.162 125.647 132.947 125.766 131.775 125.533C130.603 125.301 129.526 124.727 128.681 123.884C127.836 123.041 127.26 121.968 127.027 120.799C126.794 119.63 126.913 118.418 127.371 117.317C127.828 116.216 128.602 115.275 129.596 114.612C130.59 113.95 131.758 113.597 132.953 113.596C134.555 113.601 136.09 114.237 137.222 115.367C138.355 116.496 138.993 118.026 138.997 119.623Z" fill="#9BC9FF"/>
<path d="M116.335 39.4717C116.873 39.4717 117.399 39.6308 117.846 39.9288C118.293 40.2269 118.642 40.6505 118.848 41.1462C119.054 41.6418 119.108 42.1872 119.003 42.7134C118.898 43.2396 118.639 43.7229 118.258 44.1022C117.878 44.4816 117.393 44.7399 116.866 44.8446C116.338 44.9493 115.791 44.8956 115.294 44.6902C114.797 44.4849 114.372 44.1373 114.073 43.6912C113.774 43.2451 113.615 42.7207 113.615 42.1842C113.615 41.8279 113.685 41.4751 113.821 41.146C113.958 40.8168 114.158 40.5177 114.411 40.2658C114.664 40.0139 114.964 39.8141 115.294 39.6778C115.624 39.5416 115.978 39.4715 116.335 39.4717Z" fill="#1E81CE"/>
<path d="M72.8226 148.852C73.3603 148.852 73.8858 149.011 74.3328 149.309C74.7797 149.607 75.128 150.031 75.3336 150.526C75.5392 151.022 75.5929 151.567 75.4878 152.093C75.3828 152.618 75.1237 153.101 74.7434 153.481C74.3632 153.86 73.8787 154.118 73.3513 154.222C72.824 154.327 72.2774 154.273 71.7806 154.068C71.2839 153.862 70.8594 153.515 70.5607 153.069C70.262 152.623 70.1025 152.099 70.1025 151.563C70.1024 151.207 70.1727 150.854 70.3094 150.525C70.446 150.196 70.6464 149.897 70.899 149.645C71.1516 149.393 71.4516 149.194 71.7816 149.058C72.1117 148.921 72.4654 148.852 72.8226 148.852Z" fill="#1E81CE"/>
<path d="M17.2235 142.825C18.7177 142.825 20.1784 143.266 21.4208 144.094C22.6632 144.922 23.6316 146.098 24.2035 147.475C24.7754 148.851 24.925 150.366 24.6336 151.828C24.3421 153.289 23.6226 154.631 22.566 155.685C21.5095 156.738 20.1633 157.456 18.6978 157.747C17.2324 158.037 15.7133 157.888 14.3329 157.318C12.9525 156.747 11.7727 155.782 10.9426 154.543C10.1126 153.304 9.66965 151.847 9.6698 150.357C9.65994 149.365 9.84858 148.381 10.2247 147.463C10.6008 146.545 11.1568 145.711 11.8602 145.009C12.5636 144.308 13.4003 143.753 14.3212 143.378C15.2421 143.003 16.2288 142.815 17.2235 142.825Z" fill="#9BC9FF"/>
<path d="M10.5755 1.47266e-07C11.1134 -0.000176593 11.6393 0.158735 12.0866 0.456634C12.534 0.754534 12.8827 1.17804 13.0886 1.67358C13.2945 2.16912 13.3485 2.71443 13.2436 3.24055C13.1387 3.76666 12.8797 4.24993 12.4993 4.62924C12.119 5.00855 11.6344 5.26685 11.1068 5.37148C10.5792 5.4761 10.0323 5.42234 9.53537 5.21701C9.03842 5.01167 8.6137 4.66398 8.31494 4.21791C8.01617 3.77185 7.85679 3.24744 7.85693 2.71103C7.857 1.99207 8.14343 1.30257 8.65323 0.794166C9.16304 0.285767 9.85447 0.000102828 10.5755 1.47266e-07Z" fill="#1E81CE"/>
<path d="M6.64776 92.2034C7.18562 92.2035 7.71137 92.3627 8.15852 92.6607C8.60567 92.9588 8.95413 93.3824 9.15984 93.878C9.36555 94.3736 9.41927 94.9189 9.3142 95.4449C9.20913 95.9709 8.94999 96.454 8.56956 96.8332C8.18913 97.2123 7.70449 97.4705 7.17693 97.575C6.64937 97.6795 6.10258 97.6256 5.60572 97.4202C5.10886 97.2148 4.68424 96.8671 4.38556 96.421C4.08688 95.975 3.92756 95.4506 3.92773 94.9143C3.92776 94.5581 3.99815 94.2055 4.13487 93.8765C4.27159 93.5475 4.47197 93.2486 4.72456 92.9969C4.97715 92.7452 5.27701 92.5455 5.607 92.4093C5.93698 92.2732 6.29064 92.2032 6.64776 92.2034Z" fill="#1E81CE"/>
<path d="M67.3839 121.733L1.81298 121.129C1.57294 121.132 1.33467 121.087 1.11201 120.998C0.889343 120.909 0.686714 120.776 0.515876 120.608C0.345039 120.439 0.209395 120.239 0.116815 120.018C0.0242355 119.797 -0.0234375 119.56 -0.0234375 119.321C-0.0234375 119.082 0.0242355 118.845 0.116815 118.624C0.209395 118.403 0.345039 118.203 0.515876 118.034C0.686714 117.866 0.889343 117.733 1.11201 117.644C1.33467 117.555 1.57294 117.51 1.81298 117.513L67.3839 117.816C67.8542 117.848 68.297 118.048 68.6302 118.381C68.9635 118.713 69.1648 119.155 69.1968 119.623C69.2646 119.887 69.2677 120.164 69.2057 120.429C69.1437 120.695 69.0185 120.941 68.8406 121.148C68.6628 121.355 68.4375 121.516 68.1839 121.618C67.9304 121.72 67.6559 121.759 67.3839 121.733Z" fill="#1E81CE"/>
<path d="M120.565 139.811C117.908 139.843 115.274 139.324 112.829 138.286C110.384 137.249 108.183 135.716 106.363 133.785C102.7 129.973 100.645 124.903 100.623 119.624C100.62 116.978 101.154 114.36 102.193 111.926C103.231 109.492 104.753 107.293 106.665 105.461C110.489 101.807 115.573 99.7577 120.869 99.7358C126.144 99.782 131.189 101.892 134.919 105.612C138.649 109.332 140.765 114.363 140.811 119.624C140.813 122.268 140.279 124.886 139.241 127.32C138.202 129.754 136.681 131.953 134.768 133.785C132.949 135.716 130.746 137.249 128.301 138.286C125.856 139.323 123.222 139.843 120.565 139.811ZM120.565 103.352C116.253 103.402 112.132 105.133 109.083 108.173C106.034 111.214 104.299 115.324 104.248 119.624C104.239 121.763 104.655 123.883 105.472 125.861C106.289 127.839 107.491 129.636 109.007 131.149C110.524 132.661 112.327 133.859 114.31 134.674C116.294 135.488 118.42 135.903 120.565 135.894C124.877 135.844 128.998 134.114 132.048 131.073C135.097 128.033 136.833 123.923 136.883 119.624C136.8 115.334 135.054 111.243 132.011 108.21C128.969 105.176 124.867 103.435 120.565 103.352Z" fill="#1E81CE"/>
<path d="M132.954 127.457C130.798 127.432 128.737 126.567 127.212 125.047C125.688 123.526 124.82 121.471 124.796 119.321C124.833 117.255 125.672 115.284 127.138 113.823C128.603 112.362 130.58 111.524 132.651 111.488C134.724 111.524 136.701 112.361 138.166 113.822C139.632 115.283 140.472 117.255 140.509 119.321C140.606 120.363 140.481 121.413 140.144 122.404C139.807 123.394 139.264 124.303 138.552 125.07C137.839 125.838 136.972 126.447 136.008 126.858C135.043 127.269 134.002 127.473 132.954 127.457ZM132.954 115.705C132.394 115.692 131.838 115.792 131.319 115.999C130.799 116.206 130.328 116.517 129.932 116.911C129.536 117.306 129.225 117.776 129.018 118.294C128.81 118.812 128.71 119.367 128.724 119.925C128.71 120.482 128.81 121.037 129.018 121.555C129.226 122.073 129.537 122.543 129.932 122.937C130.328 123.332 130.8 123.642 131.319 123.849C131.838 124.056 132.394 124.156 132.954 124.142C134.068 124.119 135.131 123.668 135.92 122.882C136.708 122.096 137.161 121.036 137.185 119.925C137.112 118.829 136.643 117.798 135.865 117.022C135.086 116.245 134.052 115.778 132.954 115.705Z" fill="#1E81CE"/>
<path d="M120.565 154.274C113.663 154.266 106.922 152.194 101.213 148.327C95.5031 144.46 91.0874 138.975 88.5358 132.58L57.1104 132.279L50.4624 138.908C50.1291 139.225 49.7077 139.435 49.2532 139.51C49.0197 139.506 48.7901 139.449 48.5811 139.345C48.3722 139.241 48.1892 139.092 48.0455 138.908L42.0015 132.881L35.9587 138.908C35.6254 139.225 35.204 139.435 34.7495 139.51C34.5158 139.506 34.286 139.449 34.0769 139.345C33.8677 139.241 33.6845 139.092 33.5403 138.908L26.8938 132.279H16.6201C16.194 132.324 15.7658 132.217 15.4109 131.978L0.907218 120.828C0.302038 120.527 0.302038 119.925 0.302038 119.321C0.296316 119.011 0.378361 118.705 0.538789 118.439C0.699217 118.172 0.93155 117.957 1.20921 117.816L15.7129 106.967C16.0146 106.666 16.3181 106.666 16.9221 106.666L88.5358 106.967C91.0505 100.463 95.4903 94.8748 101.265 90.9461C107.04 87.0174 113.878 84.9338 120.868 84.972H121.17C130.339 85.0363 139.109 88.7173 145.563 95.2105C152.018 101.704 155.632 110.481 155.616 119.624C155.496 128.829 151.755 137.618 145.199 144.099C138.643 150.58 129.797 154.234 120.565 154.274ZM56.5064 128.663L89.7449 128.964C90.1305 128.974 90.5055 129.092 90.8264 129.305C91.1473 129.519 91.4009 129.819 91.5578 130.17C93.7262 136.064 97.6241 141.171 102.744 144.826C107.864 148.48 113.969 150.512 120.263 150.658H120.565C128.697 150.693 136.511 147.507 142.29 141.801C148.069 136.095 151.341 128.335 151.387 120.226C151.381 112.1 148.183 104.3 142.477 98.4981C136.772 92.6962 129.014 89.3547 120.867 89.19H120.565C114.166 89.2308 107.937 91.2533 102.74 94.9779C97.5438 98.7025 93.6361 103.945 91.5578 109.981C91.4527 110.366 91.2111 110.701 90.8779 110.922C90.5446 111.144 90.1421 111.238 89.7449 111.187L17.2238 110.583L5.13691 119.624L17.2238 128.663H27.4978C27.7315 128.668 27.9613 128.724 28.1705 128.828C28.3796 128.932 28.5629 129.082 28.707 129.265L34.7495 135.292L40.7923 129.265C41.1257 128.948 41.547 128.738 42.0015 128.663C42.2353 128.667 42.4652 128.723 42.6743 128.828C42.8835 128.932 43.0666 129.081 43.2104 129.265L49.2532 135.292L55.2972 129.265C55.4411 129.081 55.6243 128.932 55.8335 128.828C56.0427 128.724 56.2726 128.667 56.5064 128.663Z" fill="#1E81CE"/>
<path d="M25.9864 50.6213C25.5162 50.5892 25.0736 50.3884 24.7403 50.0561C24.4071 49.7238 24.2058 49.2824 24.1736 48.8135V38.8696H20.8496C20.3687 38.8696 19.9076 38.6791 19.5676 38.3401C19.2276 38.001 19.0366 37.5412 19.0366 37.0617C19.0366 36.5823 19.2276 36.1224 19.5676 35.7834C19.9076 35.4444 20.3687 35.2539 20.8496 35.2539H25.9864C26.4567 35.2858 26.8996 35.4865 27.2329 35.8188C27.5662 36.1512 27.7676 36.5928 27.7996 37.0617V48.8135C27.7676 49.2825 27.5662 49.724 27.2329 50.0564C26.8995 50.3888 26.4567 50.5895 25.9864 50.6213Z" fill="#1E81CE"/>
<path d="M42.9083 50.6213H34.4471C33.9769 50.5894 33.5341 50.3887 33.2008 50.0564C32.8675 49.724 32.6662 49.2825 32.6343 48.8135V37.0617C32.6662 36.5928 32.8675 36.1512 33.2008 35.8189C33.5341 35.4865 33.9768 35.2858 34.4471 35.2539H42.9083C43.3785 35.286 43.8211 35.4868 44.1544 35.8191C44.4876 36.1515 44.689 36.5929 44.7212 37.0617V48.8135C44.689 49.2824 44.4876 49.7238 44.1544 50.0561C43.8211 50.3884 43.3785 50.5892 42.9083 50.6213ZM36.2603 47.0057H40.792V38.8696H36.2603V47.0057Z" fill="#1E81CE"/>
<path d="M54.692 50.6213C54.2219 50.5892 53.7795 50.3883 53.4464 50.056C53.1134 49.7236 52.9123 49.2823 52.8803 48.8135V38.8696H49.5551C49.0743 38.8696 48.6132 38.6791 48.2732 38.3401C47.9332 38.001 47.7422 37.5412 47.7422 37.0617C47.7422 36.5823 47.9332 36.1224 48.2732 35.7834C48.6132 35.4444 49.0743 35.2539 49.5551 35.2539H54.692C55.1624 35.2857 55.6054 35.4864 55.9389 35.8187C56.2725 36.1511 56.4741 36.5927 56.5063 37.0617V48.8135C56.5162 49.0537 56.4761 49.2933 56.3884 49.5172C56.3007 49.7411 56.1674 49.9444 55.9968 50.1143C55.8263 50.2842 55.6223 50.417 55.3977 50.5042C55.1731 50.5915 54.9328 50.6314 54.692 50.6213Z" fill="#1E81CE"/>
<path d="M36.2606 22.2979C35.79 22.2659 35.347 22.065 35.0137 21.7324C34.6803 21.3997 34.4791 20.9578 34.4474 20.4886V10.5461H31.1237C30.6535 10.514 30.2108 10.3133 29.8774 9.98094C29.5441 9.64861 29.3428 9.20718 29.3105 8.73826C29.3425 8.26926 29.5438 7.82769 29.8772 7.49531C30.2105 7.16293 30.6534 6.96224 31.1237 6.93042H36.2606C36.7308 6.96231 37.1736 7.16302 37.5069 7.49539C37.8402 7.82777 38.0415 8.2693 38.0734 8.73826V20.4886C38.0835 20.7287 38.0435 20.9684 37.956 21.1923C37.8685 21.4163 37.7354 21.6197 37.565 21.7898C37.3946 21.9598 37.1907 22.0928 36.9662 22.1802C36.7417 22.2677 36.5014 22.3078 36.2606 22.2979Z" fill="#1E81CE"/>
<path d="M53.1824 22.2979H44.7215C44.251 22.2659 43.8081 22.065 43.4748 21.7323C43.1414 21.3997 42.9403 20.9578 42.9087 20.4886V8.73826C42.9404 8.26921 43.1416 7.82754 43.4749 7.49511C43.8083 7.16268 44.2512 6.96206 44.7215 6.93042H53.1824C53.6527 6.96231 54.0955 7.16302 54.4288 7.49539C54.7621 7.82777 54.9633 8.2693 54.9953 8.73826V20.4886C55.0054 20.7287 54.9654 20.9684 54.8779 21.1923C54.7904 21.4163 54.6572 21.6197 54.4868 21.7898C54.3165 21.9598 54.1126 22.0928 53.8881 22.1802C53.6635 22.2677 53.4233 22.3078 53.1824 22.2979ZM46.5344 18.6807H51.0661V10.546H46.5344V18.6807Z" fill="#1E81CE"/>
<path d="M64.9653 22.2979C64.4949 22.2657 64.0521 22.0647 63.7188 21.732C63.3856 21.3994 63.1844 20.9577 63.1525 20.4886V10.5461H59.8285C59.3583 10.514 58.9156 10.3132 58.5824 9.98086C58.2492 9.64853 58.0478 9.20714 58.0156 8.73826C58.0476 8.2693 58.2488 7.82777 58.5821 7.49539C58.9154 7.16302 59.3582 6.96231 59.8285 6.93042H64.9653C65.4358 6.96199 65.8787 7.16259 66.2121 7.49502C66.5456 7.82746 66.7468 8.26917 66.7785 8.73826V20.4886C66.7887 20.7288 66.7488 20.9685 66.6613 21.1925C66.5738 21.4166 66.4406 21.6201 66.2702 21.7901C66.0998 21.9602 65.8958 22.0931 65.6712 22.1805C65.4466 22.2679 65.2062 22.3079 64.9653 22.2979Z" fill="#1E81CE"/>
<path d="M78.8654 22.2979C78.395 22.2657 77.9522 22.0647 77.6189 21.7321C77.2856 21.3994 77.0844 20.9577 77.0525 20.4886V10.5461H73.7285C73.2583 10.514 72.8156 10.3132 72.4823 9.98088C72.1491 9.64855 71.9477 9.20715 71.9155 8.73826C71.9475 8.26929 72.1488 7.82775 72.4821 7.49537C72.8154 7.163 73.2582 6.96229 73.7285 6.93042H78.8654C79.3358 6.96205 79.7787 7.16267 80.1121 7.4951C80.4455 7.82752 80.6466 8.2692 80.6784 8.73826V20.4886C80.6886 20.7288 80.6487 20.9685 80.5612 21.1925C80.4737 21.4165 80.3406 21.62 80.1702 21.7901C79.9997 21.9601 79.7958 22.0931 79.5712 22.1805C79.3466 22.2679 79.1063 22.3079 78.8654 22.2979Z" fill="#1E81CE"/>
<path d="M95.7875 22.2979H87.3266C86.8562 22.2657 86.4134 22.0647 86.0801 21.7321C85.7468 21.3994 85.5456 20.9577 85.5137 20.4886V8.73826C85.5456 8.26929 85.7469 7.82775 86.0802 7.49537C86.4135 7.163 86.8563 6.96229 87.3266 6.93042H95.7875C96.2579 6.96205 96.7008 7.16267 97.0342 7.4951C97.3676 7.82752 97.5688 8.2692 97.6005 8.73826V20.4886C97.6107 20.7288 97.5708 20.9685 97.4833 21.1925C97.3958 21.4165 97.2627 21.62 97.0923 21.7901C96.9219 21.9601 96.7179 22.0931 96.4933 22.1805C96.2688 22.2679 96.0284 22.3079 95.7875 22.2979ZM89.1396 18.6807H93.6727V10.546H89.1396V18.6807Z" fill="#1E81CE"/>
<path d="M107.572 22.2979C107.102 22.2659 106.659 22.065 106.326 21.7323C105.992 21.3997 105.791 20.9578 105.759 20.4886V10.5461H102.436C101.965 10.5142 101.522 10.3135 101.189 9.98116C100.856 9.64878 100.655 9.20724 100.623 8.73826C100.654 8.2692 100.855 7.82751 101.189 7.49509C101.522 7.16266 101.965 6.96204 102.436 6.93042H107.572C108.043 6.96229 108.486 7.16299 108.819 7.49536C109.152 7.82774 109.353 8.26929 109.385 8.73826V20.4886C109.421 20.7342 109.398 20.9847 109.32 21.2202C109.241 21.4557 109.108 21.6697 108.933 21.8452C108.757 22.0208 108.542 22.1531 108.306 22.2316C108.07 22.3102 107.819 22.3329 107.572 22.2979Z" fill="#1E81CE"/>
<path d="M39.2824 90.0945C38.8121 90.0626 38.3692 89.8619 38.0359 89.5295C37.7026 89.197 37.5014 88.7554 37.4695 88.2864V78.3428H34.1455C33.9055 78.3458 33.6672 78.3013 33.4445 78.2119C33.2219 78.1224 33.0192 77.9897 32.8484 77.8215C32.6776 77.6533 32.5419 77.453 32.4493 77.2321C32.3568 77.0113 32.3091 76.7742 32.3091 76.5349C32.3091 76.2955 32.3568 76.0585 32.4493 75.8376C32.5419 75.6167 32.6776 75.4164 32.8484 75.2482C33.0192 75.08 33.2219 74.9473 33.4445 74.8579C33.6672 74.7684 33.9055 74.7239 34.1455 74.727H39.2824C39.7526 74.7588 40.1954 74.9595 40.5287 75.2919C40.862 75.6242 41.0633 76.0658 41.0952 76.5347V88.2864C41.1052 88.5265 41.0651 88.766 40.9775 88.9898C40.8899 89.2137 40.7567 89.417 40.5864 89.5869C40.416 89.7568 40.2122 89.8896 39.9877 89.977C39.7633 90.0644 39.5231 90.1044 39.2824 90.0945Z" fill="#1E81CE"/>
<path d="M56.2029 90.0946H47.7435C47.2731 90.0628 46.8301 89.8621 46.4965 89.5297C46.163 89.1973 45.9614 88.7557 45.9292 88.2865V76.5348C45.9612 76.0656 46.1627 75.6239 46.4963 75.2916C46.8299 74.9592 47.273 74.7586 47.7435 74.7271H56.2029C56.6733 74.7586 57.1163 74.9592 57.4497 75.2916C57.7831 75.624 57.9843 76.0657 58.0161 76.5348V88.2865C58.0261 88.5267 57.9861 88.7662 57.8985 88.9901C57.811 89.214 57.6778 89.4174 57.5074 89.5873C57.337 89.7572 57.133 89.8901 56.9085 89.9774C56.684 90.0647 56.4437 90.1046 56.2029 90.0946ZM49.5552 86.4788H54.0881V78.3429H49.5552V86.4788Z" fill="#1E81CE"/>
<path d="M67.9881 90.0946C67.5178 90.0625 67.0751 89.8617 66.7418 89.5293C66.4084 89.197 66.2071 88.7555 66.1749 88.2865V78.3429H62.8509C62.3741 78.3368 61.9189 78.1436 61.5839 77.8052C61.2489 77.4668 61.061 77.0105 61.061 76.535C61.061 76.0594 61.2489 75.6031 61.5839 75.2647C61.9189 74.9263 62.3741 74.7332 62.8509 74.7271H67.9881C68.4584 74.7587 68.9013 74.9593 69.2347 75.2917C69.568 75.6241 69.7692 76.0658 69.8009 76.5348V88.2865C69.811 88.5266 69.771 88.7662 69.6834 88.9901C69.5959 89.214 69.4627 89.4173 69.2924 89.5872C69.122 89.7572 68.9181 89.89 68.6936 89.9773C68.4691 90.0647 68.2288 90.1046 67.9881 90.0946Z" fill="#1E81CE"/>
<path d="M49.2529 69.9056C48.7828 69.8734 48.3401 69.6727 48.0069 69.3404C47.6736 69.0081 47.4723 68.5667 47.4401 68.0978V58.1538H44.1161C43.6353 58.1538 43.1742 57.9634 42.8342 57.6244C42.4942 57.2853 42.3032 56.8255 42.3032 56.3461C42.3032 55.8666 42.4942 55.4068 42.8342 55.0678C43.1742 54.7288 43.6353 54.5383 44.1161 54.5383H49.2529C49.7232 54.5702 50.166 54.7709 50.4993 55.1033C50.8326 55.4356 51.0338 55.8771 51.0658 56.3461V68.0978C51.3693 69.0009 50.4621 69.9056 49.2529 69.9056Z" fill="#1E81CE"/>
<path d="M66.1746 69.9056H57.7137C57.2436 69.8734 56.8009 69.6727 56.4677 69.3404C56.1344 69.0081 55.9331 68.5667 55.9009 68.0978V56.3461C55.9331 55.8772 56.1344 55.4358 56.4677 55.1035C56.8009 54.7712 57.2436 54.5704 57.7137 54.5383H66.1746C66.6449 54.5702 67.0877 54.7709 67.4211 55.1032C67.7544 55.4356 67.9557 55.8771 67.9878 56.3461V68.0978C68.2894 69.0009 67.3838 69.9056 66.1746 69.9056ZM59.8286 66.2901H64.3618V58.1538H59.8286V66.2901Z" fill="#1E81CE"/>
<path d="M77.9596 69.9056C77.4893 69.8737 77.0465 69.673 76.7132 69.3407C76.3799 69.0083 76.1786 68.5668 76.1466 68.0978V58.1538H72.8226C72.3418 58.1538 71.8807 57.9634 71.5407 57.6244C71.2008 57.2853 71.0098 56.8255 71.0098 56.3461C71.0098 55.8666 71.2008 55.4068 71.5407 55.0678C71.8807 54.7288 72.3418 54.5383 72.8226 54.5383H77.9596C78.4298 54.5704 78.8724 54.7712 79.2057 55.1035C79.5389 55.4358 79.7403 55.8772 79.7725 56.3461V68.0978C80.0744 69.0009 79.1687 69.9056 77.9596 69.9056Z" fill="#1E81CE"/>
<path d="M73.7285 47.0056C73.2583 46.9735 72.8156 46.7727 72.4823 46.4404C72.1491 46.108 71.9477 45.6666 71.9155 45.1977V30.1313C71.9175 29.6531 72.1093 29.1952 72.4491 28.8577C72.7889 28.5203 73.2489 28.3308 73.7285 28.3308C74.208 28.3308 74.6681 28.5203 75.0078 28.8577C75.3476 29.1952 75.5395 29.6531 75.5414 30.1313V45.1977C75.8448 46.101 74.9376 47.0056 73.7285 47.0056Z" fill="#1E81CE"/>
<path d="M94.5781 80.7526C94.1078 80.7207 93.665 80.5201 93.3317 80.1877C92.9984 79.8553 92.7971 79.4138 92.7652 78.9448V33.7471C92.7642 33.5091 92.8104 33.2732 92.901 33.053C92.9917 32.8328 93.1251 32.6326 93.2935 32.464C93.462 32.2953 93.6622 32.1615 93.8826 32.0702C94.1031 31.9789 94.3394 31.9319 94.5781 31.9319C94.8168 31.9319 95.0532 31.9789 95.2736 32.0702C95.494 32.1615 95.6942 32.2953 95.8627 32.464C96.0311 32.6326 96.1645 32.8328 96.2552 33.053C96.3459 33.2732 96.392 33.5091 96.3911 33.7471V78.9448C96.3593 79.4139 96.1581 79.8556 95.8248 80.188C95.4914 80.5204 95.0485 80.721 94.5781 80.7526Z" fill="#1E81CE"/>
<path d="M9.66979 77.1371C9.1994 77.1054 8.75648 76.9047 8.42314 76.5723C8.08979 76.2398 7.88863 75.7981 7.85693 75.329V24.4067C7.88864 23.9377 8.08981 23.496 8.42316 23.1636C8.7565 22.8311 9.19942 22.6305 9.66979 22.5989C10.1401 22.6308 10.5829 22.8314 10.9163 23.1638C11.2496 23.4962 11.4509 23.9377 11.4829 24.4067V75.329C11.4509 75.798 11.2496 76.2396 10.9163 76.572C10.5829 76.9044 10.1401 77.1051 9.66979 77.1371Z" fill="#1E81CE"/>
<path d="M19.0368 90.0947C18.5665 90.0626 18.1238 89.8618 17.7905 89.5295C17.4572 89.1971 17.2558 88.7556 17.2236 88.2866V63.8786C17.2559 63.4097 17.4572 62.9682 17.7905 62.6359C18.1239 62.3036 18.5665 62.1029 19.0368 62.0708C19.5071 62.1027 19.9498 62.3034 20.2831 62.6357C20.6164 62.9681 20.8177 63.4096 20.8496 63.8786V88.2866C20.8597 88.5267 20.8197 88.7663 20.7322 88.9902C20.6446 89.2141 20.5114 89.4174 20.3411 89.5873C20.1707 89.7573 19.9668 89.8901 19.7423 89.9774C19.5178 90.0648 19.2776 90.1047 19.0368 90.0947Z" fill="#1E81CE"/>
<path d="M145.646 48.8135C143.016 48.8137 140.445 48.0362 138.259 46.5796C136.073 45.1229 134.368 43.0524 133.362 40.6299C132.356 38.2074 132.092 35.5417 132.605 32.9699C133.118 30.3981 134.384 28.0357 136.243 26.1815C138.102 24.3272 140.471 23.0644 143.05 22.5527C145.629 22.041 148.303 22.3035 150.732 23.3068C153.161 24.3101 155.238 26.0093 156.699 28.1894C158.16 30.3696 158.94 32.9328 158.94 35.555C158.909 39.0615 157.498 42.4157 155.012 44.8955C152.525 47.3752 149.162 48.7822 145.646 48.8135ZM145.646 26.2147C143.793 26.2145 141.982 26.7622 140.441 27.7885C138.9 28.8149 137.7 30.2737 136.99 31.9806C136.281 33.6875 136.096 35.5658 136.457 37.3778C136.819 39.1899 137.711 40.8544 139.021 42.1609C140.331 43.4673 142 44.357 143.817 44.7174C145.634 45.0778 147.518 44.8928 149.23 44.1857C150.941 43.4786 152.404 42.2812 153.434 40.7449C154.463 39.2087 155.012 37.4025 155.012 35.555C155 33.0817 154.009 30.7132 152.255 28.9643C150.501 27.2153 148.126 26.2272 145.646 26.2147Z" fill="#1E81CE"/>
<path d="M17.2235 160C15.3708 160 13.5597 159.452 12.0191 158.426C10.4786 157.4 9.27786 155.941 8.56876 154.234C7.85965 152.527 7.67402 150.649 8.03535 148.837C8.39668 147.025 9.28873 145.361 10.5987 144.054C11.9087 142.748 13.5778 141.858 15.3948 141.497C17.2119 141.137 19.0954 141.322 20.8071 142.029C22.5189 142.736 23.9819 143.933 25.0113 145.469C26.0407 147.005 26.5902 148.811 26.5904 150.658C26.5782 153.132 25.5874 155.501 23.8335 157.25C22.0795 158.999 19.7041 159.988 17.2235 160ZM17.2235 144.934C15.7008 144.934 14.2404 145.537 13.1636 146.611C12.0868 147.684 11.4819 149.141 11.4819 150.659C11.4819 152.178 12.0868 153.634 13.1636 154.708C14.2404 155.781 15.7008 156.385 17.2235 156.385C17.9845 156.41 18.7426 156.28 19.4508 156.001C20.1591 155.722 20.8023 155.301 21.3406 154.764C21.8789 154.227 22.3008 153.586 22.5802 152.88C22.8595 152.173 22.9903 151.417 22.9644 150.658C22.9648 149.906 22.8166 149.162 22.5283 148.467C22.24 147.772 21.8171 147.141 21.2839 146.609C20.7508 146.078 20.1177 145.656 19.421 145.369C18.7243 145.081 17.9775 144.933 17.2235 144.934Z" fill="#1E81CE"/>
</g>
<defs>
<clipPath id="clip0_2693_5">
<rect width="158.94" height="160" fill="white"/>
</clipPath>
</defs>
</svg>
