<svg width="226" height="226" viewBox="0 0 226 226" fill="none" xmlns="http://www.w3.org/2000/svg">
<path d="M75.6115 74.7756C33.8372 74.7756 0 108.613 0 150.387C0 192.162 34.255 225.999 75.6115 225.999C116.968 225.999 151.223 192.162 151.223 150.387C151.223 108.613 117.386 74.7756 75.6115 74.7756ZM125.323 119.056H108.613C105.689 110.702 101.512 102.764 96.9165 95.6628C108.613 100.258 118.639 108.613 125.323 119.056ZM75.6115 96.916C81.8777 102.764 87.3084 110.284 90.6503 119.056H60.1551C64.3325 110.284 69.3454 102.764 75.6115 96.916ZM54.7244 95.6628C49.7115 102.764 45.534 110.284 43.0276 119.056H26.3178C33.0017 108.613 43.0276 100.258 54.7244 95.6628ZM18.7985 164.59C17.5452 159.995 17.1275 155.4 17.1275 150.387C17.1275 145.374 17.963 140.361 19.2162 135.766H38.8501C38.0146 140.361 37.5969 145.374 37.5969 150.387C37.5969 154.982 38.0146 159.995 38.4324 164.59H18.7985ZM25.9001 181.3H42.6098C45.534 190.073 49.7115 198.01 54.7244 205.112C42.6098 200.516 32.584 192.162 25.9001 181.3ZM75.6115 203.858C68.9277 198.01 63.9147 190.073 60.1551 180.882H91.0681C87.7261 190.073 82.2954 198.01 75.6115 203.858ZM55.5599 164.59C54.7244 159.995 54.3066 155.4 54.3066 150.387C54.3066 145.374 54.7244 140.361 55.5599 135.766H95.6632C96.4987 140.361 96.9165 145.374 96.9165 150.387C96.9165 154.982 96.4987 159.995 95.6632 164.59H55.5599ZM96.9165 205.112C101.929 198.01 106.107 190.073 109.031 181.3H125.741C119.057 192.162 109.031 200.516 96.9165 205.112ZM134.513 150.387C134.513 155.4 133.678 159.995 132.842 164.59H112.791C113.626 159.995 113.626 155.4 113.626 150.387C113.626 145.374 113.208 140.361 112.373 135.766H132.007C133.678 140.361 134.513 145.374 134.513 150.387Z" fill="#FFDD26"/>
<path d="M158.326 120.31C161.668 129.5 163.756 139.526 163.756 149.97C198.847 143.704 226 112.791 226 75.6116C226 33.8372 192.163 0 150.389 0C113.209 0 82.2964 26.7356 76.0303 62.2438C81.8787 62.2438 87.3093 62.6615 92.74 63.9147C93.1578 63.0793 93.1578 61.826 93.5755 60.9905H113.627C113.209 63.9147 112.792 67.2567 112.792 70.5986C118.64 73.5229 124.489 76.8648 129.501 80.6245C129.501 78.9535 129.084 77.2825 129.084 75.6116C129.084 70.5986 129.501 65.5857 130.337 60.9905H170.44C171.276 65.5857 171.694 70.5986 171.694 75.6116C171.694 80.2067 171.276 85.2197 170.44 89.8148H139.11C144.122 94.8278 148.3 100.258 151.642 106.525H165.845C163.756 111.537 161.25 116.133 158.326 120.31ZM117.387 44.2808H100.677C107.361 33.8372 117.387 25.4823 129.084 20.8872C124.489 27.9888 120.311 35.9259 117.387 44.2808ZM135.35 44.2808C139.11 35.5082 144.122 27.9888 150.389 22.1404C156.655 27.9888 162.085 35.5082 165.427 44.2808H135.35ZM207.202 60.9905C208.455 65.5857 209.29 70.5986 209.29 75.6116C209.29 80.6245 208.455 85.2197 207.619 89.8148H187.568C188.403 85.2197 188.403 80.6245 188.403 75.6116C188.403 70.5986 187.986 65.5857 187.15 60.9905H207.202ZM171.694 20.8872C183.39 25.4823 193.416 33.8372 200.1 44.2808H183.39C180.466 35.9259 176.706 27.9888 171.694 20.8872ZM183.808 106.525H200.518C193.834 117.386 183.808 125.741 171.694 130.336C176.706 123.234 180.884 115.297 183.808 106.525Z" fill="#FFDD26"/>
<path d="M24.2298 60.9914H63.9155V35.0913H24.2298V23.8123L0.418457 48.0414L24.2298 72.2705V60.9914Z" fill="#FFDD26"/>
<path d="M193.415 164.174H154.147V190.492H193.415V201.353L217.644 177.124L193.415 153.312V164.174Z" fill="#FFDD26"/>
</svg>
