<svg width="251" height="70" viewBox="0 0 251 70" fill="none" xmlns="http://www.w3.org/2000/svg">
<path d="M216.32 69.1337C235.314 69.1337 250.854 53.75 250.854 34.5989C250.854 15.6047 235.471 0.0639648 216.32 0.0639648H34.6975C15.7033 0.0639648 0.162598 15.4477 0.162598 34.5989C0.162598 53.75 15.5463 69.1337 34.6975 69.1337H216.32Z" fill="url(#paint0_linear_4703_3)"/>
<path d="M216.32 65.9942H34.6976C17.4302 65.9942 3.30225 52.0233 3.30225 34.5988C3.30225 17.3314 17.2732 3.20349 34.6976 3.20349H216.32C233.587 3.20349 247.715 17.1744 247.715 34.5988C247.715 52.0233 233.587 65.9942 216.32 65.9942Z" fill="url(#paint1_linear_4703_3)"/>
<path opacity="0.5" d="M216.319 4.61629H34.6974C17.5869 4.61629 3.77294 18.2733 3.45898 35.3837C3.45898 35.2267 3.45898 34.9128 3.45898 34.7558C3.45898 17.4884 17.4299 3.36047 34.8543 3.36047H216.476C233.744 3.36047 247.872 17.3314 247.872 34.7558C247.872 34.9128 247.872 35.2267 247.872 35.3837C247.244 18.2733 233.43 4.61629 216.319 4.61629Z" fill="black"/>
<path opacity="0.5" d="M35.7963 53.436C45.1594 53.436 52.7498 45.8457 52.7498 36.4825C52.7498 27.1194 45.1594 19.5291 35.7963 19.5291C26.4331 19.5291 18.8428 27.1194 18.8428 36.4825C18.8428 45.8457 26.4331 53.436 35.7963 53.436Z" fill="black"/>
<path d="M35.7963 52.3373C45.1594 52.3373 52.7498 44.7469 52.7498 35.3838C52.7498 26.0206 45.1594 18.4303 35.7963 18.4303C26.4331 18.4303 18.8428 26.0206 18.8428 35.3838C18.8428 44.7469 26.4331 52.3373 35.7963 52.3373Z" fill="url(#paint2_linear_4703_3)"/>
<path d="M35.7964 26.75V43.2326" stroke="white" stroke-linecap="round" stroke-linejoin="round"/>
<path d="M41.6046 38.3663L36.2674 43.7035C35.9534 44.0175 35.6394 44.0175 35.3255 43.7035L29.9883 38.3663" stroke="white" stroke-linecap="round" stroke-linejoin="round"/>
<path d="M62.9258 43.2727C62.2667 43.2727 61.7013 43.0426 61.2298 42.5824C60.7638 42.1165 60.5337 41.5511 60.5394 40.8864C60.5337 40.2386 60.7638 39.6847 61.2298 39.2244C61.7013 38.7642 62.2667 38.5341 62.9258 38.5341C63.5508 38.5341 64.1019 38.7642 64.5792 39.2244C65.0621 39.6847 65.3065 40.2386 65.3121 40.8864C65.3065 41.3295 65.19 41.733 64.9627 42.0966C64.7411 42.4545 64.4513 42.7415 64.0934 42.9574C63.7354 43.1676 63.3462 43.2727 62.9258 43.2727ZM70.4258 43.2727C69.7667 43.2727 69.2013 43.0426 68.7298 42.5824C68.2638 42.1165 68.0337 41.5511 68.0394 40.8864C68.0337 40.2386 68.2638 39.6847 68.7298 39.2244C69.2013 38.7642 69.7667 38.5341 70.4258 38.5341C71.0508 38.5341 71.6019 38.7642 72.0792 39.2244C72.5621 39.6847 72.8065 40.2386 72.8121 40.8864C72.8065 41.3295 72.69 41.733 72.4627 42.0966C72.2411 42.4545 71.9513 42.7415 71.5934 42.9574C71.2354 43.1676 70.8462 43.2727 70.4258 43.2727ZM77.9258 43.2727C77.2667 43.2727 76.7013 43.0426 76.2298 42.5824C75.7638 42.1165 75.5337 41.5511 75.5394 40.8864C75.5337 40.2386 75.7638 39.6847 76.2298 39.2244C76.7013 38.7642 77.2667 38.5341 77.9258 38.5341C78.5508 38.5341 79.1019 38.7642 79.5792 39.2244C80.0621 39.6847 80.3065 40.2386 80.3121 40.8864C80.3065 41.3295 80.19 41.733 79.9627 42.0966C79.7411 42.4545 79.4513 42.7415 79.0934 42.9574C78.7354 43.1676 78.3462 43.2727 77.9258 43.2727ZM85.4817 48.544L84.2577 45.568C85.1057 45.28 85.8817 44.944 86.5857 44.56C87.3057 44.176 87.9297 43.752 88.4577 43.288C88.9857 42.824 89.3937 42.32 89.6817 41.776C89.9697 41.216 90.1137 40.616 90.1137 39.976C90.1137 39.304 89.9617 38.568 89.6577 37.768C89.3537 36.968 88.9857 36.152 88.5537 35.32L91.6977 33.808C91.9857 34.304 92.2337 34.84 92.4417 35.416C92.6657 35.976 92.8497 36.48 92.9937 36.928C93.1377 37.376 93.2337 37.68 93.2817 37.84C93.5057 38.608 93.8097 39.12 94.1937 39.376C94.5937 39.632 95.2337 39.76 96.1137 39.76C96.7217 39.76 97.1537 39.92 97.4097 40.24C97.6817 40.544 97.8177 40.928 97.8177 41.392C97.8177 41.888 97.6497 42.304 97.3137 42.64C96.9777 42.96 96.4977 43.12 95.8737 43.12C95.2177 43.12 94.6417 43.024 94.1457 42.832C93.6497 42.64 93.2497 42.36 92.9457 41.992C92.6577 41.624 92.4737 41.192 92.3937 40.696L93.2817 41.2C93.1857 42.048 92.9057 42.848 92.4417 43.6C91.9937 44.368 91.4097 45.072 90.6897 45.712C89.9697 46.352 89.1617 46.912 88.2657 47.392C87.3697 47.872 86.4417 48.256 85.4817 48.544ZM95.9023 43.12L96.1423 39.76C96.7183 39.76 97.2143 39.704 97.6303 39.592C98.0463 39.48 98.3983 39.256 98.6863 38.92C98.9743 38.568 99.2143 38.056 99.4063 37.384C99.6143 36.712 99.7983 35.816 99.9583 34.696L103.102 35.224C103.07 35.464 103.022 35.744 102.958 36.064C102.91 36.384 102.862 36.712 102.814 37.048C102.782 37.368 102.766 37.672 102.766 37.96C102.766 38.248 102.822 38.504 102.934 38.728C103.046 38.952 103.222 39.144 103.462 39.304C103.718 39.448 104.046 39.56 104.446 39.64C104.862 39.72 105.366 39.76 105.958 39.76C106.566 39.76 106.998 39.92 107.254 40.24C107.51 40.544 107.638 40.928 107.638 41.392C107.638 41.888 107.47 42.304 107.134 42.64C106.814 42.96 106.342 43.12 105.718 43.12C104.998 43.12 104.342 43.064 103.75 42.952C103.174 42.84 102.67 42.656 102.238 42.4C101.822 42.128 101.478 41.776 101.206 41.344C100.95 40.896 100.79 40.352 100.726 39.712H101.878C101.59 40.48 101.222 41.096 100.774 41.56C100.342 42.008 99.8543 42.344 99.3103 42.568C98.7663 42.792 98.1983 42.936 97.6063 43C97.0303 43.08 96.4623 43.12 95.9023 43.12ZM103.606 32.536C103.142 32.536 102.742 32.376 102.406 32.056C102.086 31.72 101.926 31.328 101.926 30.88C101.926 30.416 102.086 30.016 102.406 29.68C102.742 29.344 103.142 29.176 103.606 29.176C104.054 29.176 104.438 29.344 104.758 29.68C105.078 30.016 105.238 30.416 105.238 30.88C105.238 31.328 105.078 31.72 104.758 32.056C104.438 32.376 104.054 32.536 103.606 32.536ZM99.4543 32.512C98.9903 32.512 98.5903 32.352 98.2543 32.032C97.9343 31.696 97.7743 31.304 97.7743 30.856C97.7743 30.392 97.9343 29.992 98.2543 29.656C98.5903 29.32 98.9903 29.152 99.4543 29.152C99.9023 29.152 100.286 29.32 100.606 29.656C100.926 29.992 101.086 30.392 101.086 30.856C101.086 31.304 100.926 31.696 100.606 32.032C100.286 32.352 99.9023 32.512 99.4543 32.512ZM105.723 43.12L105.963 39.76C106.491 39.76 106.923 39.72 107.259 39.64C107.595 39.544 107.867 39.344 108.075 39.04C108.299 38.72 108.491 38.248 108.651 37.624C108.827 36.984 109.019 36.12 109.227 35.032L112.347 35.608C112.283 35.96 112.195 36.4 112.083 36.928C111.987 37.456 111.939 37.912 111.939 38.296C111.939 38.6 111.995 38.864 112.107 39.088C112.235 39.296 112.443 39.464 112.731 39.592C113.035 39.704 113.451 39.76 113.979 39.76C114.395 39.76 114.747 39.72 115.035 39.64C115.339 39.544 115.595 39.344 115.803 39.04C116.027 38.72 116.219 38.232 116.379 37.576C116.555 36.904 116.723 36 116.883 34.864L120.051 35.368C119.987 35.736 119.923 36.128 119.859 36.544C119.795 36.96 119.739 37.344 119.691 37.696C119.643 38.048 119.619 38.336 119.619 38.56C119.619 38.768 119.675 38.968 119.787 39.16C119.915 39.336 120.139 39.48 120.459 39.592C120.795 39.704 121.259 39.76 121.851 39.76C122.571 39.76 123.099 39.608 123.435 39.304C123.787 38.984 123.963 38.504 123.963 37.864C123.963 37.496 123.955 37.104 123.939 36.688C123.923 36.256 123.891 35.776 123.843 35.248C123.811 34.704 123.747 34.088 123.651 33.4L126.747 33.16C126.859 34.536 126.987 35.656 127.131 36.52C127.275 37.384 127.467 38.056 127.707 38.536C127.963 39 128.299 39.32 128.715 39.496C129.147 39.672 129.707 39.76 130.395 39.76C131.003 39.76 131.435 39.92 131.691 40.24C131.963 40.544 132.099 40.928 132.099 41.392C132.099 41.888 131.931 42.304 131.595 42.64C131.275 42.96 130.795 43.12 130.155 43.12C129.723 43.12 129.275 43.08 128.811 43C128.347 42.936 127.899 42.8 127.467 42.592C127.035 42.368 126.651 42.048 126.315 41.632C125.979 41.216 125.715 40.664 125.523 39.976L125.955 40.12C125.731 40.92 125.427 41.536 125.043 41.968C124.659 42.4 124.187 42.704 123.627 42.88C123.067 43.04 122.395 43.12 121.611 43.12C120.891 43.12 120.251 43.024 119.691 42.832C119.131 42.64 118.683 42.328 118.347 41.896C118.027 41.448 117.859 40.848 117.843 40.096H118.659C118.339 40.992 117.971 41.656 117.555 42.088C117.139 42.52 116.635 42.8 116.043 42.928C115.451 43.056 114.707 43.12 113.811 43.12C113.267 43.12 112.731 43.064 112.203 42.952C111.675 42.824 111.203 42.544 110.787 42.112C110.371 41.664 110.067 40.96 109.875 40L111.171 39.952C110.835 40.896 110.395 41.592 109.851 42.04C109.323 42.488 108.715 42.784 108.027 42.928C107.339 43.056 106.571 43.12 105.723 43.12ZM118.035 28.264C117.635 28.264 117.283 28.112 116.979 27.808C116.691 27.504 116.547 27.144 116.547 26.728C116.547 26.312 116.691 25.96 116.979 25.672C117.283 25.384 117.635 25.24 118.035 25.24C118.451 25.24 118.803 25.384 119.091 25.672C119.379 25.96 119.523 26.312 119.523 26.728C119.523 27.144 119.379 27.504 119.091 27.808C118.803 28.112 118.451 28.264 118.035 28.264ZM116.115 31.432C115.715 31.432 115.363 31.28 115.059 30.976C114.771 30.672 114.627 30.312 114.627 29.896C114.627 29.48 114.771 29.128 115.059 28.84C115.363 28.552 115.715 28.408 116.115 28.408C116.531 28.408 116.883 28.552 117.171 28.84C117.459 29.128 117.603 29.48 117.603 29.896C117.603 30.312 117.459 30.672 117.171 30.976C116.883 31.28 116.531 31.432 116.115 31.432ZM119.835 31.432C119.435 31.432 119.083 31.28 118.779 30.976C118.491 30.672 118.347 30.312 118.347 29.896C118.347 29.48 118.491 29.128 118.779 28.84C119.083 28.552 119.435 28.408 119.835 28.408C120.251 28.408 120.603 28.552 120.891 28.84C121.179 29.128 121.323 29.48 121.323 29.896C121.323 30.312 121.179 30.672 120.891 30.976C120.603 31.28 120.251 31.432 119.835 31.432ZM130.168 43.12L130.408 39.76C130.984 39.76 131.48 39.704 131.896 39.592C132.312 39.48 132.664 39.256 132.952 38.92C133.24 38.568 133.48 38.056 133.672 37.384C133.88 36.712 134.064 35.816 134.224 34.696L137.368 35.224C137.336 35.464 137.288 35.744 137.224 36.064C137.176 36.384 137.128 36.712 137.08 37.048C137.048 37.368 137.032 37.672 137.032 37.96C137.032 38.248 137.088 38.504 137.2 38.728C137.312 38.952 137.488 39.144 137.728 39.304C137.984 39.448 138.312 39.56 138.712 39.64C139.128 39.72 139.632 39.76 140.224 39.76C140.832 39.76 141.264 39.92 141.52 40.24C141.776 40.544 141.904 40.928 141.904 41.392C141.904 41.888 141.736 42.304 141.4 42.64C141.08 42.96 140.608 43.12 139.984 43.12C139.264 43.12 138.608 43.064 138.016 42.952C137.44 42.84 136.936 42.656 136.504 42.4C136.088 42.128 135.744 41.776 135.472 41.344C135.216 40.896 135.056 40.352 134.992 39.712H136.144C135.856 40.48 135.488 41.096 135.04 41.56C134.608 42.008 134.12 42.344 133.576 42.568C133.032 42.792 132.464 42.936 131.872 43C131.296 43.08 130.728 43.12 130.168 43.12ZM136.864 48.688C136.4 48.688 136 48.52 135.664 48.184C135.344 47.864 135.184 47.48 135.184 47.032C135.184 46.568 135.344 46.168 135.664 45.832C136 45.496 136.4 45.328 136.864 45.328C137.312 45.328 137.696 45.496 138.016 45.832C138.336 46.168 138.496 46.568 138.496 47.032C138.496 47.48 138.336 47.864 138.016 48.184C137.696 48.52 137.312 48.688 136.864 48.688ZM132.712 48.688C132.248 48.688 131.848 48.52 131.512 48.184C131.192 47.864 131.032 47.48 131.032 47.032C131.032 46.568 131.192 46.168 131.512 45.832C131.848 45.496 132.248 45.328 132.712 45.328C133.16 45.328 133.544 45.496 133.864 45.832C134.184 46.168 134.344 46.568 134.344 47.032C134.344 47.48 134.184 47.864 133.864 48.184C133.544 48.52 133.16 48.688 132.712 48.688ZM139.988 43.12L140.228 39.76C140.932 39.76 141.484 39.712 141.884 39.616C142.3 39.52 142.596 39.344 142.772 39.088C142.948 38.816 143.036 38.432 143.036 37.936C143.036 37.488 142.972 36.952 142.844 36.328C142.732 35.704 142.58 35.056 142.388 34.384C142.196 33.712 142.004 33.096 141.812 32.536L145.124 31.624C145.316 32.168 145.508 32.8 145.7 33.52C145.892 34.24 146.052 34.984 146.18 35.752C146.324 36.504 146.396 37.232 146.396 37.936C146.396 38.816 146.284 39.56 146.06 40.168C145.836 40.76 145.524 41.256 145.124 41.656C144.74 42.04 144.276 42.344 143.732 42.568C143.204 42.776 142.62 42.92 141.98 43C141.34 43.08 140.676 43.12 139.988 43.12ZM142.94 48.64C142.476 48.64 142.076 48.48 141.74 48.16C141.42 47.84 141.26 47.448 141.26 46.984C141.26 46.52 141.42 46.112 141.74 45.76C142.076 45.424 142.476 45.256 142.94 45.256C143.404 45.256 143.796 45.424 144.116 45.76C144.452 46.112 144.62 46.52 144.62 46.984C144.62 47.448 144.452 47.84 144.116 48.16C143.796 48.48 143.404 48.64 142.94 48.64ZM157.739 43.072C156.843 43.072 156.035 42.92 155.315 42.616C154.611 42.296 154.051 41.824 153.635 41.2C153.235 40.56 153.035 39.768 153.035 38.824C153.035 37.88 153.355 36.832 153.995 35.68C154.635 34.512 155.707 33.344 157.211 32.176L156.971 34.384L154.811 32.704L157.067 29.944C158.283 30.872 159.323 31.776 160.187 32.656C161.067 33.52 161.739 34.408 162.203 35.32C162.667 36.232 162.899 37.2 162.899 38.224C162.899 38.72 162.819 39.256 162.659 39.832C162.499 40.392 162.227 40.92 161.843 41.416C161.459 41.896 160.931 42.296 160.259 42.616C159.603 42.92 158.763 43.072 157.739 43.072ZM158.003 39.76C158.403 39.76 158.723 39.68 158.963 39.52C159.219 39.36 159.411 39.152 159.539 38.896C159.667 38.64 159.731 38.368 159.731 38.08C159.731 37.792 159.667 37.48 159.539 37.144C159.411 36.808 159.163 36.432 158.795 36.016C158.427 35.6 157.883 35.12 157.163 34.576L158.987 34.336C158.331 34.784 157.803 35.24 157.403 35.704C157.003 36.168 156.715 36.616 156.539 37.048C156.379 37.464 156.299 37.848 156.299 38.2C156.299 38.712 156.467 39.104 156.803 39.376C157.139 39.632 157.539 39.76 158.003 39.76ZM168.916 39.76C169.636 39.76 170.188 39.696 170.572 39.568C170.956 39.44 171.22 39.272 171.364 39.064C171.508 38.856 171.58 38.632 171.58 38.392C171.58 38.008 171.468 37.56 171.244 37.048C171.036 36.536 170.772 36 170.452 35.44C170.132 34.88 169.796 34.344 169.444 33.832C169.108 33.32 168.804 32.872 168.532 32.488L171.388 30.592C172.076 31.52 172.668 32.44 173.164 33.352C173.66 34.248 174.06 35.08 174.364 35.848C174.684 36.616 174.908 37.272 175.036 37.816C175.164 38.328 175.356 38.728 175.612 39.016C175.884 39.288 176.196 39.48 176.548 39.592C176.9 39.704 177.252 39.76 177.604 39.76C178.212 39.76 178.644 39.92 178.9 40.24C179.172 40.544 179.308 40.928 179.308 41.392C179.308 41.888 179.14 42.304 178.804 42.64C178.484 42.96 178.004 43.12 177.364 43.12C176.66 43.12 176.044 43.024 175.516 42.832C174.988 42.64 174.54 42.336 174.172 41.92C173.804 41.504 173.492 40.976 173.236 40.336L174.7 40.648C174.572 41.096 174.276 41.512 173.812 41.896C173.364 42.264 172.764 42.568 172.012 42.808C171.276 43.032 170.404 43.144 169.396 43.144C168.916 43.144 168.38 43.104 167.788 43.024C167.212 42.944 166.636 42.824 166.06 42.664C165.5 42.504 164.988 42.296 164.524 42.04L165.7 38.992C166.292 39.248 166.86 39.44 167.404 39.568C167.964 39.696 168.468 39.76 168.916 39.76ZM187.163 43.192C186.443 43.192 185.699 43.104 184.931 42.928C184.179 42.752 183.451 42.488 182.747 42.136C182.043 41.784 181.411 41.344 180.851 40.816C180.291 40.288 179.843 39.68 179.507 38.992C179.187 38.288 179.027 37.496 179.027 36.616C179.027 35.896 179.179 35.232 179.483 34.624C179.787 34.016 180.235 33.528 180.827 33.16C181.435 32.776 182.171 32.584 183.035 32.584C183.851 32.584 184.555 32.784 185.147 33.184C185.755 33.568 186.227 34.072 186.563 34.696C186.899 35.304 187.067 35.944 187.067 36.616C187.067 37.688 186.803 38.632 186.275 39.448C185.747 40.248 185.019 40.92 184.091 41.464C183.179 42.008 182.147 42.424 180.995 42.712C179.843 42.984 178.643 43.12 177.395 43.12L177.635 39.76C178.547 39.76 179.339 39.736 180.011 39.688C180.699 39.64 181.291 39.536 181.787 39.376C182.283 39.216 182.715 38.976 183.083 38.656C183.451 38.336 183.731 37.984 183.923 37.6C184.131 37.2 184.235 36.808 184.235 36.424C184.235 36.168 184.195 35.928 184.115 35.704C184.051 35.48 183.939 35.296 183.779 35.152C183.635 34.992 183.443 34.912 183.203 34.912C182.947 34.912 182.731 34.992 182.555 35.152C182.395 35.296 182.267 35.488 182.171 35.728C182.091 35.968 182.051 36.224 182.051 36.496C182.051 37.056 182.195 37.56 182.483 38.008C182.787 38.456 183.187 38.832 183.683 39.136C184.179 39.44 184.723 39.672 185.315 39.832C185.923 39.992 186.539 40.072 187.163 40.072C187.659 40.072 188.011 39.992 188.219 39.832C188.427 39.672 188.531 39.456 188.531 39.184C188.531 38.992 188.483 38.792 188.387 38.584C188.307 38.36 188.123 38.088 187.835 37.768C187.547 37.448 187.107 37.056 186.515 36.592C185.923 36.112 185.131 35.52 184.139 34.816C183.147 34.112 181.899 33.256 180.395 32.248L182.243 29.632C183.939 30.832 185.355 31.88 186.491 32.776C187.643 33.672 188.571 34.456 189.275 35.128C189.979 35.8 190.515 36.392 190.883 36.904C191.267 37.4 191.523 37.856 191.651 38.272C191.779 38.688 191.843 39.104 191.843 39.52C191.843 40.288 191.659 40.944 191.291 41.488C190.923 42.032 190.387 42.456 189.683 42.76C188.995 43.048 188.155 43.192 187.163 43.192ZM200.378 43.12C198.89 43.12 197.738 42.968 196.922 42.664C196.122 42.36 195.562 41.888 195.242 41.248C194.922 40.592 194.738 39.768 194.69 38.776L194.186 25.432H197.546L198.05 37.168C198.082 37.904 198.162 38.456 198.29 38.824C198.418 39.192 198.658 39.44 199.01 39.568C199.378 39.696 199.914 39.76 200.618 39.76C201.226 39.76 201.658 39.92 201.914 40.24C202.186 40.544 202.322 40.928 202.322 41.392C202.322 41.888 202.154 42.304 201.818 42.64C201.482 42.96 201.002 43.12 200.378 43.12ZM200.41 43.12L200.65 39.76C201.178 39.76 201.61 39.72 201.946 39.64C202.282 39.544 202.554 39.344 202.762 39.04C202.986 38.72 203.178 38.248 203.338 37.624C203.514 36.984 203.706 36.12 203.914 35.032L207.034 35.608C206.97 35.96 206.882 36.4 206.77 36.928C206.674 37.456 206.626 37.912 206.626 38.296C206.626 38.6 206.682 38.864 206.794 39.088C206.922 39.296 207.13 39.464 207.418 39.592C207.722 39.704 208.138 39.76 208.666 39.76C209.082 39.76 209.434 39.72 209.722 39.64C210.026 39.544 210.282 39.344 210.49 39.04C210.714 38.72 210.906 38.232 211.066 37.576C211.242 36.904 211.41 36 211.57 34.864L214.738 35.368C214.674 35.736 214.61 36.128 214.546 36.544C214.482 36.96 214.426 37.344 214.378 37.696C214.33 38.048 214.306 38.336 214.306 38.56C214.306 38.768 214.362 38.968 214.474 39.16C214.602 39.336 214.826 39.48 215.146 39.592C215.482 39.704 215.946 39.76 216.538 39.76C217.258 39.76 217.786 39.608 218.122 39.304C218.474 38.984 218.65 38.504 218.65 37.864C218.65 37.496 218.642 37.104 218.626 36.688C218.61 36.256 218.578 35.776 218.53 35.248C218.498 34.704 218.434 34.088 218.338 33.4L221.434 33.16C221.546 34.536 221.674 35.656 221.818 36.52C221.962 37.384 222.154 38.056 222.394 38.536C222.65 39 222.986 39.32 223.402 39.496C223.834 39.672 224.394 39.76 225.082 39.76C225.69 39.76 226.122 39.92 226.378 40.24C226.65 40.544 226.786 40.928 226.786 41.392C226.786 41.888 226.618 42.304 226.282 42.64C225.962 42.96 225.482 43.12 224.842 43.12C224.41 43.12 223.962 43.08 223.498 43C223.034 42.936 222.586 42.8 222.154 42.592C221.722 42.368 221.338 42.048 221.002 41.632C220.666 41.216 220.402 40.664 220.21 39.976L220.642 40.12C220.418 40.92 220.114 41.536 219.73 41.968C219.346 42.4 218.874 42.704 218.314 42.88C217.754 43.04 217.082 43.12 216.298 43.12C215.578 43.12 214.938 43.024 214.378 42.832C213.818 42.64 213.37 42.328 213.034 41.896C212.714 41.448 212.546 40.848 212.53 40.096H213.346C213.026 40.992 212.658 41.656 212.242 42.088C211.826 42.52 211.322 42.8 210.73 42.928C210.138 43.056 209.394 43.12 208.498 43.12C207.954 43.12 207.418 43.064 206.89 42.952C206.362 42.824 205.89 42.544 205.474 42.112C205.058 41.664 204.754 40.96 204.562 40L205.858 39.952C205.522 40.896 205.082 41.592 204.538 42.04C204.01 42.488 203.402 42.784 202.714 42.928C202.026 43.056 201.258 43.12 200.41 43.12ZM212.722 28.264C212.322 28.264 211.97 28.112 211.666 27.808C211.378 27.504 211.234 27.144 211.234 26.728C211.234 26.312 211.378 25.96 211.666 25.672C211.97 25.384 212.322 25.24 212.722 25.24C213.138 25.24 213.49 25.384 213.778 25.672C214.066 25.96 214.21 26.312 214.21 26.728C214.21 27.144 214.066 27.504 213.778 27.808C213.49 28.112 213.138 28.264 212.722 28.264ZM210.802 31.432C210.402 31.432 210.05 31.28 209.746 30.976C209.458 30.672 209.314 30.312 209.314 29.896C209.314 29.48 209.458 29.128 209.746 28.84C210.05 28.552 210.402 28.408 210.802 28.408C211.218 28.408 211.57 28.552 211.858 28.84C212.146 29.128 212.29 29.48 212.29 29.896C212.29 30.312 212.146 30.672 211.858 30.976C211.57 31.28 211.218 31.432 210.802 31.432ZM214.522 31.432C214.122 31.432 213.77 31.28 213.466 30.976C213.178 30.672 213.034 30.312 213.034 29.896C213.034 29.48 213.178 29.128 213.466 28.84C213.77 28.552 214.122 28.408 214.522 28.408C214.938 28.408 215.29 28.552 215.578 28.84C215.866 29.128 216.01 29.48 216.01 29.896C216.01 30.312 215.866 30.672 215.578 30.976C215.29 31.28 214.938 31.432 214.522 31.432ZM224.855 43.12L225.095 39.76C225.463 39.76 225.775 39.672 226.031 39.496C226.303 39.304 226.583 38.992 226.871 38.56C227.159 38.112 227.495 37.512 227.879 36.76C228.359 35.8 228.855 35.048 229.367 34.504C229.895 33.96 230.431 33.576 230.975 33.352C231.535 33.112 232.095 32.992 232.655 32.992C233.359 32.992 234.015 33.144 234.623 33.448C235.231 33.752 235.759 34.168 236.207 34.696C236.655 35.208 236.999 35.8 237.239 36.472C237.495 37.128 237.623 37.808 237.623 38.512C237.623 39.36 237.439 40.128 237.071 40.816C236.719 41.488 236.223 42.024 235.583 42.424C234.959 42.808 234.239 43 233.423 43C232.735 43 231.935 42.88 231.023 42.64C230.111 42.4 229.151 41.896 228.143 41.128L229.367 38.224C230.087 38.72 230.759 39.08 231.383 39.304C232.023 39.528 232.551 39.64 232.967 39.64C233.287 39.64 233.551 39.608 233.759 39.544C233.967 39.48 234.119 39.376 234.215 39.232C234.311 39.088 234.359 38.896 234.359 38.656C234.359 38.32 234.279 37.976 234.119 37.624C233.959 37.272 233.743 36.976 233.471 36.736C233.215 36.48 232.911 36.352 232.559 36.352C232.223 36.352 231.935 36.48 231.695 36.736C231.471 36.976 231.247 37.328 231.023 37.792C230.815 38.24 230.559 38.768 230.255 39.376C229.887 40.112 229.527 40.728 229.175 41.224C228.823 41.704 228.447 42.088 228.047 42.376C227.663 42.648 227.207 42.84 226.679 42.952C226.167 43.064 225.559 43.12 224.855 43.12Z" fill="white"/>
<defs>
<linearGradient id="paint0_linear_4703_3" x1="250.817" y1="34.7455" x2="0.231035" y2="34.7455" gradientUnits="userSpaceOnUse">
<stop stop-color="#2ECAB3"/>
<stop offset="1" stop-color="#4C549D"/>
</linearGradient>
<linearGradient id="paint1_linear_4703_3" x1="247.675" y1="34.7456" x2="3.37319" y2="34.7456" gradientUnits="userSpaceOnUse">
<stop stop-color="#635A73"/>
<stop offset="1" stop-color="#3C3A45"/>
</linearGradient>
<linearGradient id="paint2_linear_4703_3" x1="52.7136" y1="35.3654" x2="18.8299" y2="35.3654" gradientUnits="userSpaceOnUse">
<stop stop-color="#2ECAB3"/>
<stop offset="1" stop-color="#4C549D"/>
</linearGradient>
</defs>
</svg>
