<svg width="159" height="163" viewBox="0 0 159 163" fill="none" xmlns="http://www.w3.org/2000/svg">
<path d="M122.943 39.8701H22.152C19.4474 39.9111 16.8652 41.0036 14.9527 42.916C13.0402 44.8284 11.9479 47.4103 11.9072 50.1144V150.887C11.9481 153.591 13.0406 156.172 14.9531 158.084C16.8656 159.997 19.4477 161.089 22.152 161.13H122.943C125.647 161.089 128.23 159.997 130.142 158.085C132.055 156.173 133.148 153.591 133.189 150.887V50.1144C133.148 47.4101 132.056 44.828 130.143 42.9156C128.23 41.0032 125.647 39.9108 122.943 39.8701Z" fill="#9BC9FF"/>
<path d="M27.6904 57.312V145.627H117.682V57.312H27.6904Z" fill="white"/>
<path d="M150.356 121.264C151.725 121.264 153.063 121.67 154.202 122.431C155.34 123.191 156.227 124.272 156.751 125.537C157.275 126.801 157.412 128.193 157.145 129.536C156.878 130.878 156.218 132.111 155.25 133.079C154.282 134.047 153.049 134.706 151.706 134.974C150.363 135.241 148.971 135.104 147.706 134.58C146.441 134.056 145.36 133.169 144.599 132.031C143.839 130.893 143.433 129.555 143.432 128.186C143.424 127.274 143.597 126.37 143.941 125.526C144.286 124.683 144.796 123.916 145.44 123.271C146.085 122.627 146.852 122.117 147.696 121.773C148.54 121.428 149.444 121.255 150.356 121.264Z" fill="#9BC9FF"/>
<path d="M151.187 5.26514C151.68 5.26502 152.162 5.41107 152.571 5.6848C152.981 5.95853 153.301 6.34765 153.49 6.80294C153.678 7.25823 153.728 7.75925 153.631 8.24261C153.535 8.72598 153.298 9.16998 152.949 9.51847C152.601 9.86695 152.157 10.1043 151.673 10.2004C151.19 10.2965 150.689 10.2471 150.233 10.0585C149.778 9.86983 149.389 9.5504 149.115 9.14058C148.841 8.73076 148.695 8.24897 148.695 7.75614C148.695 7.42898 148.76 7.10501 148.885 6.80274C149.01 6.50047 149.193 6.22581 149.425 5.99448C149.656 5.76315 149.931 5.57966 150.233 5.45452C150.536 5.32938 150.86 5.26502 151.187 5.26514Z" fill="#1E81CE"/>
<path d="M147.864 86.6584C148.357 86.6583 148.839 86.8043 149.249 87.078C149.659 87.3517 149.978 87.7408 150.167 88.1961C150.356 88.6514 150.405 89.1524 150.309 89.6358C150.213 90.1192 149.976 90.5632 149.627 90.9117C149.279 91.2602 148.835 91.4975 148.351 91.5937C147.868 91.6898 147.367 91.6404 146.911 91.4518C146.456 91.2632 146.067 90.9437 145.793 90.5339C145.519 90.1241 145.373 89.6423 145.373 89.1494C145.373 88.8223 145.437 88.4984 145.562 88.1961C145.688 87.8938 145.871 87.6192 146.102 87.3879C146.334 87.1565 146.608 86.9731 146.911 86.8479C147.213 86.7227 147.537 86.6584 147.864 86.6584Z" fill="#1E81CE"/>
<path d="M96.0832 34.8872C95.2678 34.557 94.5657 33.9974 94.062 33.2762C93.5584 32.555 93.2748 31.7032 93.2457 30.8241C93.2165 29.945 93.4431 29.0763 93.898 28.3234C94.3528 27.5704 95.0163 26.9656 95.8081 26.5822L101.069 24.0898L122.389 31.2886L143.71 24.0898L148.971 26.5822C149.763 26.9656 150.426 27.5705 150.881 28.3234C151.336 29.0764 151.562 29.9451 151.533 30.8242C151.504 31.7033 151.22 32.5551 150.717 33.2763C150.213 33.9975 149.511 34.5571 148.695 34.8872C112.975 49.2834 158.386 31.0119 122.668 45.4081C105.776 38.7627 110.483 40.7017 96.0832 34.8872Z" fill="#9BC9FF"/>
<path d="M144.264 150.61C144.757 150.61 145.238 150.756 145.648 151.03C146.058 151.303 146.378 151.692 146.567 152.148C146.755 152.603 146.805 153.104 146.709 153.587C146.613 154.071 146.375 154.515 146.027 154.863C145.678 155.212 145.234 155.449 144.751 155.545C144.267 155.641 143.766 155.592 143.311 155.403C142.855 155.215 142.466 154.895 142.192 154.486C141.918 154.076 141.772 153.594 141.772 153.101C141.773 152.441 142.036 151.807 142.503 151.34C142.97 150.873 143.603 150.611 144.264 150.61Z" fill="#1E81CE"/>
<path d="M145.926 35.9949C145.926 35.9949 121.836 45.6847 122.389 45.408C121.558 45.1313 127.372 47.3456 98.8528 35.9949C98.5317 38.1961 98.3469 40.4151 98.2993 42.6392C98.3084 47.5693 99.248 52.4534 101.069 57.0351C102.46 60.6919 104.687 63.973 107.571 66.6168C110.455 69.2605 113.918 71.1938 117.682 72.2625C120.313 72.9567 123.063 73.0687 125.741 72.5905C128.42 72.1122 130.961 71.0554 133.189 69.4937C141.219 64.5106 146.48 54.2663 146.48 42.3625C146.42 40.2309 146.235 38.1047 145.926 35.9949Z" fill="white"/>
<path d="M135.402 4.98855L143.71 24.0898L122.39 31.2886L101.069 24.0898L109.374 4.98855C109.673 4.27384 110.128 3.6355 110.707 3.12086C111.286 2.60622 111.974 2.2285 112.719 2.0157C113.463 1.8029 114.247 1.76049 115.01 1.89162C115.774 2.02274 116.498 2.32403 117.129 2.77314L119.62 4.43408C120.493 4.97774 121.5 5.26593 122.527 5.26593C123.555 5.26593 124.562 4.97774 125.434 4.43408L127.928 2.77314C128.539 2.33348 129.242 2.03951 129.984 1.91377C130.726 1.78802 131.487 1.83384 132.209 2.04772C132.93 2.26159 133.593 2.63784 134.147 3.14761C134.7 3.65737 135.13 4.28712 135.402 4.98855Z" fill="white"/>
<path d="M140.941 37.9326V44.3002C140.953 44.8127 140.862 45.3223 140.672 45.7982C140.481 46.2742 140.196 46.7065 139.834 47.069C139.471 47.4315 139.039 47.7167 138.563 47.9071C138.087 48.0975 137.577 48.1893 137.065 48.1769H130.698C130.185 48.1894 129.675 48.0976 129.199 47.9073C128.723 47.7169 128.29 47.4318 127.928 47.0693C127.565 46.7068 127.28 46.2745 127.089 45.7985C126.899 45.3225 126.807 44.8128 126.819 44.3002V43.4691L140.941 37.9326Z" fill="#9BC9FF"/>
<path d="M117.682 43.4691V44.3002C117.695 44.8126 117.603 45.3221 117.412 45.7979C117.222 46.2738 116.937 46.706 116.575 47.0685C116.212 47.4309 115.78 47.716 115.304 47.9066C114.828 48.0971 114.319 48.189 113.806 48.1769H107.436C106.924 48.1891 106.414 48.0971 105.938 47.9066C105.462 47.7161 105.03 47.431 104.668 47.0685C104.305 46.7061 104.02 46.2738 103.83 45.798C103.64 45.3221 103.548 44.8126 103.56 44.3002V37.9326L117.682 43.4691Z" fill="#9BC9FF"/>
<path d="M98.5779 101.331H83.0697C83.0697 98.5376 81.9766 95.8546 80.0239 93.856L91.1011 82.782C95.7979 87.8305 98.461 94.4376 98.5779 101.331Z" fill="white"/>
<path d="M83.0697 101.332H98.5779C98.6089 104.721 97.9636 108.083 96.6798 111.22C95.3961 114.357 93.4995 117.207 91.1011 119.603L80.0239 108.529C81.9075 106.598 82.9949 104.028 83.0697 101.332Z" fill="#9BC9FF"/>
<path d="M92.4855 1.94189C92.9785 1.94192 93.4604 2.08811 93.8703 2.36199C94.2803 2.63586 94.5997 3.02511 94.7884 3.48052C94.977 3.93592 95.0263 4.43703 94.9301 4.92047C94.8339 5.40391 94.5965 5.84797 94.2479 6.1965C93.8992 6.54503 93.4551 6.78236 92.9715 6.8785C92.488 6.97464 91.9868 6.92525 91.5313 6.7366C91.0759 6.54794 90.6866 6.22849 90.4127 5.81862C90.1388 5.40876 89.9926 4.92691 89.9927 4.43399C89.9928 3.77305 90.2556 3.13924 90.723 2.67191C91.1905 2.20458 91.8244 1.942 92.4855 1.94189Z" fill="#1E81CE"/>
<path d="M90.823 83.0583L79.747 94.1324C78.7728 93.1442 77.6077 92.3645 76.3225 91.841C75.0373 91.3174 73.659 91.0608 72.2715 91.0869V75.5845C75.7147 75.4626 79.1452 76.0648 82.3409 77.3523C85.5365 78.6397 88.4263 80.5837 90.823 83.0583Z" fill="#9BC9FF"/>
<path d="M80.0234 108.529L91.1006 119.603C88.7041 122 85.8535 123.897 82.7155 125.18C79.5775 126.464 76.215 127.109 72.8247 127.078V111.574C75.5257 111.518 78.1023 110.428 80.0234 108.529Z" fill="white"/>
<path d="M80.0235 93.856C81.7975 95.5891 82.9141 97.8846 83.1822 100.35C83.4503 102.815 82.8533 105.297 81.4933 107.371C80.1333 109.444 78.0949 110.981 75.7267 111.718C73.3585 112.455 70.8078 112.346 68.5109 111.411C66.214 110.475 64.3137 108.77 63.1351 106.588C61.9565 104.407 61.5728 101.883 62.0497 99.4494C62.5267 97.0159 63.8345 94.8237 65.7496 93.2478C67.6646 91.672 70.0678 90.8104 72.5481 90.8105C75.3269 90.8851 77.9839 91.9675 80.0235 93.856Z" fill="white"/>
<path d="M72.5481 111.574V127.078C69.1577 127.109 65.7952 126.464 62.6571 125.18C59.519 123.897 56.6684 122.001 54.272 119.603L65.348 108.529C66.2674 109.513 67.3836 110.293 68.6241 110.817C69.8645 111.342 71.2015 111.6 72.5481 111.574Z" fill="#9BC9FF"/>
<path d="M72.5482 75.3066V90.8104C69.7539 90.8105 67.0705 91.9035 65.0717 93.8559L53.9956 82.7818C59.0447 78.0856 65.6531 75.4229 72.5482 75.3066Z" fill="white"/>
<path d="M64.795 22.7056C65.2881 22.7056 65.77 22.8518 66.1799 23.1256C66.5898 23.3995 66.9093 23.7888 67.0979 24.2442C67.2866 24.6996 67.3359 25.2007 67.2397 25.6841C67.1435 26.1676 66.9061 26.6116 66.5574 26.9602C66.2088 27.3087 65.7647 27.546 65.2811 27.6422C64.7976 27.7383 64.2964 27.6889 63.8409 27.5003C63.3854 27.3116 62.9961 26.9922 62.7223 26.5823C62.4484 26.1724 62.3022 25.6906 62.3022 25.1977C62.3021 24.8703 62.3665 24.5462 62.4917 24.2437C62.6169 23.9413 62.8005 23.6665 63.0321 23.4351C63.2636 23.2036 63.5384 23.0201 63.8409 22.8949C64.1434 22.7697 64.4677 22.7054 64.795 22.7056Z" fill="#1E81CE"/>
<path d="M65.0715 108.529L53.9955 119.603C51.5971 117.207 49.7005 114.357 48.4167 111.22C47.1329 108.083 46.4877 104.721 46.5186 101.332H62.0255C62.2257 103.999 63.2958 106.528 65.0715 108.529Z" fill="white"/>
<path d="M54.2721 83.0586L65.3482 94.1326C64.3597 95.1067 63.5798 96.2718 63.0562 97.557C62.5325 98.8421 62.276 100.22 62.3022 101.608H46.7956C46.6741 98.165 47.2767 94.735 48.5646 91.5398C49.8525 88.3445 51.7969 85.4551 54.2721 83.0586Z" fill="#9BC9FF"/>
<path d="M34.6128 122.923V135.107H27.6903H11.9072V122.923H27.6903H34.6128Z" fill="white"/>
<path d="M34.6128 67.5557V79.737H27.6903H11.9072V67.5557H27.6903H34.6128Z" fill="white"/>
<path d="M22.4286 1.66528C24.8384 1.66499 27.1942 2.37918 29.198 3.71754C31.2018 5.0559 32.7637 6.95831 33.6861 9.1842C34.6086 11.4101 34.8501 13.8595 34.3801 16.2226C33.9102 18.5857 32.7499 20.7564 31.046 22.4602C29.3421 24.164 27.1712 25.3244 24.8077 25.7946C22.4442 26.2647 19.9943 26.0236 17.7679 25.1017C15.5415 24.1797 13.6385 22.6184 12.2996 20.6151C10.9608 18.6118 10.2461 16.2565 10.2461 13.8472C10.2459 10.6166 11.5294 7.51822 13.814 5.23369C16.0986 2.94916 19.1974 1.66557 22.4286 1.66528Z" fill="#9BC9FF"/>
<path d="M5.81531 36.5483C6.30813 36.5484 6.78986 36.6947 7.19958 36.9685C7.60931 37.2423 7.92863 37.6314 8.11718 38.0867C8.30572 38.5419 8.35503 39.0428 8.25885 39.5261C8.16268 40.0094 7.92535 40.4533 7.57687 40.8017C7.22839 41.1501 6.78441 41.3874 6.30106 41.4835C5.81771 41.5797 5.3167 41.5304 4.86136 41.3419C4.40603 41.1534 4.01683 40.8341 3.74296 40.4245C3.46909 40.0148 3.32286 39.5332 3.32275 39.0404C3.32264 38.7131 3.38703 38.389 3.51225 38.0866C3.63748 37.7842 3.82107 37.5094 4.05255 37.278C4.28403 37.0466 4.55885 36.863 4.86131 36.7378C5.16377 36.6126 5.48795 36.5482 5.81531 36.5483Z" fill="#1E81CE"/>
<path d="M2.49255 138.705C2.98537 138.705 3.46708 138.851 3.8768 139.125C4.28652 139.399 4.60584 139.788 4.7944 140.243C4.98295 140.699 5.03227 141.199 4.93612 141.683C4.83997 142.166 4.60267 142.61 4.25422 142.958C3.90576 143.307 3.46181 143.544 2.97847 143.64C2.49514 143.736 1.99414 143.687 1.5388 143.499C1.08346 143.31 0.694239 142.991 0.42034 142.581C0.14644 142.172 0.00016244 141.69 3.38231e-08 141.197C-5.38937e-05 140.87 0.0643791 140.546 0.189619 140.244C0.314859 139.941 0.498453 139.667 0.729915 139.435C0.961377 139.204 1.23617 139.02 1.53861 138.895C1.84105 138.77 2.1652 138.705 2.49255 138.705Z" fill="#1E81CE"/>
<path d="M72.5484 129.016C66.2164 128.953 60.101 126.702 55.2408 122.643C50.3806 118.585 47.0751 112.97 45.8856 106.751C44.6961 100.533 45.6959 94.094 48.7153 88.5289C51.7346 82.9637 56.5874 78.6149 62.4496 76.2209C68.3118 73.8269 74.8221 73.5352 80.8749 75.3954C86.9278 77.2556 92.1502 81.153 95.6553 86.4258C99.1604 91.6987 100.732 98.0219 100.104 104.322C99.4753 110.622 96.6854 116.51 92.2077 120.987C86.9283 126.087 79.8893 128.962 72.5484 129.016ZM72.5484 76.9689C66.8518 76.9189 61.3146 78.8485 56.8833 82.428C52.452 86.0075 49.4016 91.0146 48.2535 96.5935C47.1054 102.172 47.9309 107.977 50.5888 113.015C53.2468 118.053 57.5722 122.011 62.8258 124.214C68.0794 126.416 73.9351 126.726 79.392 125.091C84.8489 123.455 89.5683 119.976 92.7435 115.247C95.9188 110.518 97.3527 104.833 96.8004 99.1638C96.248 93.4948 93.7436 88.1936 89.7152 84.1663C87.4735 81.8891 84.8015 80.0801 81.8545 78.8445C78.9074 77.6089 75.7441 76.9713 72.5484 76.9689Z" fill="#1E81CE"/>
<path d="M72.5484 113.513C69.6997 113.538 66.9307 112.574 64.7145 110.784C62.4983 108.995 60.9726 106.491 60.3981 103.701C59.8236 100.912 60.236 98.0091 61.5648 95.4897C62.8935 92.9703 65.0562 90.9905 67.6832 89.8887C70.3102 88.787 73.2383 88.6315 75.9672 89.4491C78.6961 90.2667 81.0562 92.0064 82.6443 94.371C84.2324 96.7356 84.9497 99.5783 84.6738 102.413C84.3979 105.248 83.1459 107.899 81.1316 109.913C80.0079 111.048 78.6714 111.95 77.1986 112.568C75.7258 113.185 74.1455 113.507 72.5484 113.513ZM72.5484 92.7481C70.5823 92.7647 68.6827 93.4613 67.1721 94.7196C65.6615 95.9778 64.6332 97.7201 64.2619 99.6505C63.8905 101.581 64.199 103.58 65.135 105.309C66.0709 107.038 67.5766 108.389 69.3962 109.134C71.2158 109.878 73.2371 109.97 75.1168 109.394C76.9964 108.817 78.6185 107.608 79.7074 105.971C80.7962 104.334 81.2848 102.371 81.0901 100.415C80.8953 98.4588 80.0293 96.6305 78.6391 95.2405C77.8376 94.4451 76.8871 93.8156 75.8419 93.3879C74.7968 92.9602 73.6776 92.7428 72.5484 92.7481Z" fill="#1E81CE"/>
<path d="M27.6904 124.586C27.2593 124.557 26.8532 124.372 26.5475 124.067C26.2418 123.762 26.0572 123.356 26.0278 122.925V79.7363C26.0278 79.2956 26.2029 78.873 26.5146 78.5614C26.8263 78.2498 27.249 78.0747 27.6898 78.0747C28.1305 78.0747 28.5533 78.2498 28.8649 78.5614C29.1766 78.873 29.3517 79.2956 29.3517 79.7363V122.925C29.3224 123.356 29.138 123.761 28.8326 124.067C28.5271 124.372 28.1214 124.556 27.6904 124.586Z" fill="#1E81CE"/>
<path d="M34.6129 81.3975H12.1843C11.9643 81.4003 11.746 81.3594 11.542 81.2772C11.3379 81.195 11.1522 81.0731 10.9957 80.9186C10.8391 80.7641 10.7148 80.58 10.63 80.3771C10.5452 80.1741 10.5015 79.9564 10.5015 79.7364C10.5015 79.5165 10.5452 79.2987 10.63 79.0958C10.7148 78.8928 10.8391 78.7088 10.9957 78.5543C11.1522 78.3997 11.3379 78.2778 11.542 78.1956C11.746 78.1134 11.9643 78.0725 12.1843 78.0753H32.9517V69.4937H12.1843C11.9643 69.4965 11.746 69.4556 11.542 69.3734C11.3379 69.2912 11.1522 69.1693 10.9957 69.0148C10.8391 68.8602 10.7148 68.6762 10.63 68.4732C10.5452 68.2703 10.5015 68.0525 10.5015 67.8326C10.5015 67.6127 10.5452 67.3949 10.63 67.192C10.7148 66.989 10.8391 66.805 10.9957 66.6504C11.1522 66.4959 11.3379 66.374 11.542 66.2918C11.746 66.2096 11.9643 66.1687 12.1843 66.1715H34.6129C35.0438 66.2008 35.4496 66.3852 35.755 66.6906C36.0604 66.9959 36.2449 67.4016 36.2741 67.8325V80.013C36.1854 80.3929 35.9752 80.7336 35.6755 80.9834C35.3757 81.2332 35.0027 81.3786 34.6129 81.3975Z" fill="#1E81CE"/>
<path d="M34.6129 136.768H12.1843C11.9643 136.77 11.746 136.73 11.542 136.647C11.3379 136.565 11.1522 136.443 10.9957 136.289C10.8391 136.134 10.7148 135.95 10.63 135.747C10.5452 135.544 10.5015 135.326 10.5015 135.107C10.5015 134.887 10.5452 134.669 10.63 134.466C10.7148 134.263 10.8391 134.079 10.9957 133.924C11.1522 133.77 11.3379 133.648 11.542 133.566C11.746 133.484 11.9643 133.443 12.1843 133.445H32.9517V124.864H12.1843C11.9643 124.867 11.746 124.826 11.542 124.744C11.3379 124.661 11.1522 124.539 10.9957 124.385C10.8391 124.23 10.7148 124.046 10.63 123.843C10.5452 123.64 10.5015 123.423 10.5015 123.203C10.5015 122.983 10.5452 122.765 10.63 122.562C10.7148 122.359 10.8391 122.175 10.9957 122.021C11.1522 121.866 11.3379 121.744 11.542 121.662C11.746 121.58 11.9643 121.539 12.1843 121.542H34.6129C35.0437 121.571 35.4493 121.755 35.7547 122.06C36.06 122.365 36.2446 122.771 36.2741 123.201V135.383C36.1851 135.763 35.9748 136.104 35.6751 136.353C35.3754 136.603 35.0026 136.748 34.6129 136.768Z" fill="#1E81CE"/>
<path d="M72.5485 92.7481C72.1174 92.7191 71.7116 92.5347 71.4061 92.2293C71.1006 91.9239 70.9163 91.5181 70.8872 91.0872V75.5848C70.8872 75.1443 71.0622 74.7218 71.3738 74.4103C71.6853 74.0988 72.1079 73.9238 72.5485 73.9238C72.989 73.9238 73.4116 74.0988 73.7231 74.4103C74.0347 74.7218 74.2097 75.1443 74.2097 75.5848V91.0872C74.1804 91.518 73.996 91.9237 73.6906 92.2291C73.3851 92.5344 72.9794 92.7188 72.5485 92.7481Z" fill="#1E81CE"/>
<path d="M72.5485 129.016C72.1174 128.987 71.7116 128.802 71.4061 128.497C71.1006 128.191 70.9163 127.786 70.8872 127.355V111.851C70.8872 111.41 71.0622 110.988 71.3738 110.676C71.6853 110.365 72.1079 110.19 72.5485 110.19C72.989 110.19 73.4116 110.365 73.7231 110.676C74.0347 110.988 74.2097 111.41 74.2097 111.851V127.355C74.1804 127.786 73.996 128.191 73.6906 128.497C73.3851 128.802 72.9794 128.986 72.5485 129.016Z" fill="#1E81CE"/>
<path d="M80.0235 95.7935C79.8095 95.7895 79.599 95.7378 79.4075 95.6421C79.2161 95.5464 79.0484 95.4092 78.9168 95.2404C78.6451 94.8817 78.498 94.4441 78.498 93.9942C78.498 93.5442 78.6451 93.1066 78.9168 92.748L89.9926 81.6742C90.1561 81.5097 90.3504 81.3791 90.5645 81.2898C90.7786 81.2006 91.0081 81.1544 91.2401 81.1541C91.472 81.1537 91.7017 81.1991 91.9161 81.2876C92.1304 81.3762 92.3252 81.5062 92.4892 81.6701C92.6532 81.8341 92.7833 82.0288 92.8719 82.2431C92.9605 82.4574 93.0059 82.6871 93.0056 82.919C93.0052 83.1509 92.9591 83.3805 92.8698 83.5945C92.7806 83.8085 92.6499 84.0029 92.4854 84.1663L81.408 95.2404C80.9792 95.4978 80.5117 95.6845 80.0235 95.7935Z" fill="#1E81CE"/>
<path d="M54.2721 121.264C54.0579 121.26 53.8474 121.208 53.6558 121.112C53.4641 121.016 53.2962 120.879 53.1643 120.711C52.8932 120.352 52.7466 119.914 52.7466 119.464C52.7466 119.015 52.8932 118.577 53.1643 118.218L64.2415 107.144C64.572 106.814 65.0203 106.629 65.4876 106.629C65.9549 106.629 66.4031 106.814 66.7335 107.145C67.0639 107.475 67.2494 107.924 67.2493 108.391C67.2492 108.858 67.0635 109.306 66.7329 109.636L55.6569 120.711C55.4794 120.897 55.2638 121.043 55.0248 121.138C54.7859 121.234 54.5291 121.277 54.2721 121.264Z" fill="#1E81CE"/>
<path d="M98.5776 102.992H83.0694C82.6325 102.987 82.2153 102.809 81.9083 102.498C81.6013 102.187 81.4292 101.768 81.4292 101.331C81.4292 100.894 81.6013 100.475 81.9083 100.164C82.2153 99.8532 82.6325 99.6758 83.0694 99.6702H98.5776C99.0146 99.6758 99.4317 99.8532 99.7387 100.164C100.046 100.475 100.218 100.894 100.218 101.331C100.218 101.768 100.046 102.187 99.7387 102.498C99.4317 102.809 99.0146 102.987 98.5776 102.992Z" fill="#1E81CE"/>
<path d="M62.3021 102.992H46.7955C46.3585 102.987 45.9414 102.809 45.6344 102.498C45.3274 102.187 45.1553 101.768 45.1553 101.331C45.1553 100.894 45.3274 100.475 45.6344 100.164C45.9414 99.8531 46.3585 99.6757 46.7955 99.6701H62.3021C62.522 99.6672 62.7404 99.7081 62.9444 99.7903C63.1485 99.8725 63.3342 99.9944 63.4907 100.149C63.6473 100.303 63.7715 100.488 63.8564 100.69C63.9412 100.893 63.9849 101.111 63.9849 101.331C63.9849 101.551 63.9412 101.769 63.8564 101.972C63.7715 102.175 63.6473 102.359 63.4907 102.513C63.3342 102.668 63.1485 102.79 62.9444 102.872C62.7404 102.954 62.522 102.995 62.3021 102.992Z" fill="#1E81CE"/>
<path d="M65.0719 95.7936C64.8577 95.7895 64.6471 95.7377 64.4555 95.642C64.2638 95.5464 64.0959 95.4092 63.9639 95.2405L52.8878 84.1664C52.5573 83.836 52.3716 83.3877 52.3716 82.9204C52.3716 82.453 52.5573 82.0048 52.8878 81.6743C53.2183 81.3439 53.6666 81.1582 54.1341 81.1582C54.6015 81.1582 55.0498 81.3439 55.3804 81.6743L66.4564 92.7481C66.7275 93.107 66.8741 93.5445 66.8741 93.9943C66.8741 94.444 66.7275 94.8815 66.4564 95.2405C66.0773 95.5866 65.5852 95.7832 65.0719 95.7936Z" fill="#1E81CE"/>
<path d="M90.8229 121.264C90.6087 121.26 90.3981 121.208 90.2064 121.112C90.0147 121.016 89.8468 120.879 89.7148 120.71L78.6388 109.636C78.3082 109.306 78.1226 108.858 78.1226 108.39C78.1226 107.923 78.3082 107.475 78.6388 107.144C78.9693 106.814 79.4176 106.628 79.8851 106.628C80.3525 106.628 80.8008 106.814 81.1313 107.144L92.2074 118.218C92.4785 118.577 92.6251 119.015 92.6251 119.464C92.6251 119.914 92.4785 120.352 92.2074 120.71C92.0433 120.913 91.8298 121.071 91.5874 121.168C91.345 121.265 91.0817 121.298 90.8229 121.264Z" fill="#1E81CE"/>
<path d="M117.682 136.767H89.9927C89.5558 136.762 89.1387 136.584 88.8317 136.273C88.5247 135.963 88.3525 135.543 88.3525 135.106C88.3525 134.669 88.5247 134.25 88.8317 133.939C89.1387 133.628 89.5558 133.451 89.9927 133.445H117.682C118.119 133.451 118.536 133.628 118.843 133.939C119.15 134.25 119.323 134.669 119.323 135.106C119.323 135.543 119.15 135.963 118.843 136.273C118.536 136.584 118.119 136.762 117.682 136.767Z" fill="#1E81CE"/>
<path d="M117.683 128.186H103.839C103.619 128.189 103.4 128.148 103.196 128.066C102.992 127.983 102.807 127.861 102.65 127.707C102.493 127.552 102.369 127.368 102.284 127.165C102.199 126.962 102.156 126.745 102.156 126.525C102.156 126.305 102.199 126.087 102.284 125.884C102.369 125.681 102.493 125.497 102.65 125.343C102.807 125.188 102.992 125.066 103.196 124.984C103.4 124.902 103.619 124.861 103.839 124.864H117.683C118.12 124.869 118.537 125.047 118.844 125.358C119.151 125.669 119.323 126.088 119.323 126.525C119.323 126.962 119.151 127.381 118.844 127.692C118.537 128.003 118.12 128.18 117.683 128.186Z" fill="#1E81CE"/>
<path d="M34.613 93.5792H27.691C27.2504 93.5792 26.8279 93.4042 26.5164 93.0927C26.2048 92.7812 26.0298 92.3588 26.0298 91.9183C26.0298 91.4778 26.2048 91.0553 26.5164 90.7438C26.8279 90.4323 27.2504 90.2573 27.691 90.2573H34.613C35.0536 90.2573 35.4762 90.4323 35.7877 90.7438C36.0992 91.0553 36.2743 91.4778 36.2743 91.9183C36.2743 92.3588 36.0992 92.7812 35.7877 93.0927C35.4762 93.4042 35.0536 93.5792 34.613 93.5792Z" fill="#1E81CE"/>
<path d="M39.5968 114.343H27.4127C26.9757 114.337 26.5586 114.16 26.2516 113.849C25.9446 113.538 25.7725 113.119 25.7725 112.682C25.7725 112.245 25.9446 111.826 26.2516 111.515C26.5586 111.204 26.9757 111.026 27.4127 111.021H39.5968C40.0278 111.05 40.4337 111.234 40.7391 111.54C41.0446 111.845 41.229 112.251 41.258 112.682C41.2674 112.902 41.2308 113.122 41.1506 113.328C41.0705 113.534 40.9484 113.721 40.7923 113.877C40.6361 114.033 40.4492 114.155 40.2434 114.235C40.0376 114.316 39.8174 114.352 39.5968 114.343Z" fill="#1E81CE"/>
<path d="M143.711 25.751C143.353 25.7621 143.001 25.6614 142.704 25.4631C142.406 25.2648 142.178 24.9787 142.05 24.6446L133.743 5.54194C133.558 5.06358 133.26 4.63727 132.874 4.29972C132.488 3.96218 132.025 3.72352 131.526 3.60432C131.015 3.42412 130.465 3.38037 129.931 3.47735C129.397 3.57434 128.897 3.80873 128.482 4.15742L125.99 5.81863C124.811 6.49921 123.474 6.85751 122.113 6.85751C120.752 6.85751 119.414 6.49921 118.236 5.81863L115.744 4.15742C115.303 3.85901 114.804 3.65574 114.279 3.56052C113.754 3.4653 113.216 3.48022 112.697 3.60432C112.199 3.72356 111.737 3.96226 111.351 4.29983C110.965 4.6374 110.668 5.06369 110.484 5.54194L102.176 24.6446C102.102 24.8587 101.983 25.0539 101.825 25.2162C101.667 25.3785 101.476 25.5038 101.264 25.5832C101.052 25.6625 100.825 25.6939 100.6 25.6751C100.374 25.6563 100.156 25.5877 99.9597 25.4743C99.1309 24.921 98.5777 24.0898 99.1309 23.26L107.436 4.15742C107.841 3.22295 108.448 2.39032 109.215 1.72C109.982 1.04968 110.888 0.558503 111.868 0.282159C112.841 0.000429403 113.862 -0.0712839 114.865 0.0717776C115.867 0.214839 116.828 0.569404 117.682 1.11195L120.174 2.77316C120.738 3.17851 121.416 3.39652 122.112 3.39652C122.807 3.39652 123.485 3.17851 124.05 2.77316L126.544 1.11195C127.399 0.569315 128.359 0.214696 129.361 0.0716318C130.364 -0.0714324 131.385 0.000331468 132.358 0.282159C133.338 0.558198 134.244 1.04929 135.01 1.71967C135.776 2.39005 136.383 3.22284 136.787 4.15742L145.095 23.26C145.261 23.666 145.267 24.1194 145.113 24.5299C144.959 24.9403 144.656 25.2776 144.264 25.4743C144.12 25.6324 143.923 25.7311 143.711 25.751Z" fill="#1E81CE"/>
<path d="M117.682 147.288H27.6904C27.2594 147.259 26.8534 147.074 26.5478 146.769C26.2421 146.464 26.0574 146.058 26.0278 145.627V135.106C26.0278 134.666 26.2029 134.243 26.5146 133.931C26.8263 133.62 27.249 133.445 27.6898 133.445C28.1305 133.445 28.5533 133.62 28.8649 133.931C29.1766 134.243 29.3517 134.666 29.3517 135.106V143.688H116.019V135.106C116.016 134.886 116.057 134.668 116.139 134.464C116.222 134.26 116.344 134.074 116.498 133.918C116.653 133.761 116.837 133.637 117.04 133.552C117.243 133.468 117.461 133.424 117.681 133.424C117.901 133.424 118.118 133.468 118.321 133.552C118.524 133.637 118.708 133.761 118.863 133.918C119.018 134.074 119.139 134.26 119.222 134.464C119.304 134.668 119.345 134.886 119.342 135.106V145.627C119.313 146.058 119.129 146.463 118.824 146.769C118.518 147.074 118.113 147.259 117.682 147.288Z" fill="#1E81CE"/>
<path d="M117.682 136.768C117.251 136.738 116.845 136.554 116.54 136.249C116.234 135.943 116.049 135.538 116.02 135.107V126.523C116.025 126.087 116.203 125.67 116.514 125.363C116.825 125.056 117.244 124.884 117.681 124.884C118.118 124.884 118.537 125.056 118.848 125.363C119.159 125.67 119.337 126.087 119.342 126.523V135.107C119.313 135.537 119.129 135.943 118.824 136.249C118.519 136.554 118.113 136.738 117.682 136.768Z" fill="#1E81CE"/>
<path d="M117.683 128.186C117.251 128.157 116.845 127.972 116.539 127.666C116.234 127.361 116.049 126.955 116.02 126.523V72.5392C116.017 72.3193 116.058 72.101 116.14 71.897C116.222 71.693 116.344 71.5073 116.499 71.3508C116.653 71.1943 116.837 71.07 117.04 70.9852C117.243 70.9004 117.461 70.8567 117.681 70.8567C117.901 70.8567 118.119 70.9004 118.322 70.9852C118.525 71.07 118.709 71.1943 118.863 71.3508C119.018 71.5073 119.14 71.693 119.222 71.897C119.304 72.101 119.345 72.3193 119.342 72.5392V126.247C119.368 126.721 119.209 127.187 118.9 127.548C118.591 127.909 118.155 128.137 117.683 128.186Z" fill="#1E81CE"/>
<path d="M122.943 162.791H22.1519C20.5852 162.802 19.0317 162.503 17.5818 161.908C16.132 161.314 14.8149 160.438 13.7069 159.33C12.599 158.223 11.7225 156.906 11.1283 155.456C10.5341 154.007 10.2342 152.453 10.2459 150.887V50.1143C10.234 48.5476 10.5339 46.9943 11.128 45.5446C11.7221 44.0949 12.5986 42.7779 13.7065 41.67C14.8145 40.5621 16.1317 39.6856 17.5816 39.0915C19.0315 38.4973 20.585 38.1974 22.1519 38.2091H98.2993C98.7363 38.2147 99.1534 38.3922 99.4604 38.7031C99.7674 39.014 99.9395 39.4333 99.9395 39.8701C99.9395 40.307 99.7674 40.7263 99.4604 41.0372C99.1534 41.3481 98.7363 41.5256 98.2993 41.5312H22.1519C19.8788 41.5427 17.7021 42.4507 16.0948 44.0579C14.4875 45.6651 13.5796 47.8415 13.5684 50.1143V150.887C13.5797 153.159 14.4876 155.336 16.0949 156.943C17.7022 158.55 19.879 159.457 22.1519 159.468H122.943C125.216 159.457 127.392 158.55 129 156.943C130.607 155.336 131.515 153.159 131.526 150.887V69.77C131.532 69.3331 131.709 68.9161 132.02 68.6091C132.331 68.3022 132.751 68.1301 133.188 68.1301C133.625 68.1301 134.044 68.3022 134.355 68.6091C134.666 68.9161 134.843 69.3331 134.849 69.77V150.61C134.883 153.803 133.648 156.879 131.416 159.163C129.184 161.447 126.136 162.752 122.943 162.791Z" fill="#1E81CE"/>
<path d="M27.6904 69.2171C27.2594 69.1879 26.8534 69.0035 26.5478 68.6982C26.2421 68.3928 26.0574 67.9871 26.0278 67.5561V57.0352C26.0574 56.6042 26.2421 56.1985 26.5478 55.8932C26.8534 55.5878 27.2594 55.4035 27.6904 55.3743H101.069C101.505 55.3799 101.923 55.5574 102.23 55.8683C102.537 56.1792 102.709 56.5985 102.709 57.0353C102.709 57.4722 102.537 57.8915 102.23 58.2024C101.923 58.5133 101.505 58.6908 101.069 58.6964H29.3517V67.5561C29.3222 67.9869 29.1377 68.3925 28.8323 68.6978C28.5269 69.0031 28.1213 69.1876 27.6904 69.2171Z" fill="#1E81CE"/>
<path d="M113.806 50.1144H107.436C105.969 50.1097 104.563 49.5247 103.526 48.4872C102.488 47.4496 101.904 46.0438 101.9 44.5769V38.2092C101.906 37.7724 102.083 37.3553 102.394 37.0484C102.705 36.7414 103.124 36.5693 103.561 36.5693C103.998 36.5693 104.418 36.7414 104.729 37.0484C105.04 37.3553 105.217 37.7724 105.223 38.2092V44.5769C105.261 45.1513 105.507 45.6922 105.914 46.0995C106.321 46.5068 106.862 46.7529 107.436 46.7923H113.806C114.381 46.7529 114.921 46.5068 115.328 46.0995C115.735 45.6922 115.981 45.1512 116.019 44.5769V43.7471C116.016 43.5271 116.057 43.3088 116.14 43.1048C116.222 42.9008 116.344 42.7152 116.498 42.5587C116.653 42.4021 116.837 42.2779 117.04 42.193C117.243 42.1082 117.461 42.0645 117.681 42.0645C117.901 42.0645 118.118 42.1082 118.321 42.193C118.524 42.2779 118.708 42.4021 118.863 42.5587C119.018 42.7152 119.14 42.9008 119.222 43.1048C119.304 43.3088 119.345 43.5271 119.342 43.7471V44.5769C119.364 45.3097 119.235 46.0392 118.965 46.7207C118.694 47.4021 118.287 48.0211 117.769 48.5396C117.251 49.0582 116.632 49.4653 115.95 49.7362C115.269 50.007 114.539 50.1357 113.806 50.1144Z" fill="#1E81CE"/>
<path d="M137.065 50.1144H130.698C129.23 50.1103 127.824 49.5256 126.786 48.488C125.748 47.4504 125.163 46.0443 125.159 44.5769V43.7471C125.156 43.5271 125.197 43.3088 125.279 43.1048C125.361 42.9008 125.483 42.7152 125.638 42.5587C125.792 42.4021 125.976 42.2779 126.179 42.193C126.382 42.1082 126.6 42.0645 126.82 42.0645C127.04 42.0645 127.258 42.1082 127.461 42.193C127.664 42.2779 127.848 42.4021 128.003 42.5587C128.157 42.7152 128.279 42.9008 128.361 43.1048C128.444 43.3088 128.484 43.5271 128.482 43.7471V44.5769C128.52 45.1517 128.766 45.6929 129.174 46.1003C129.581 46.5076 130.123 46.7535 130.698 46.7923H137.065C137.64 46.753 138.181 46.507 138.588 46.0997C138.995 45.6925 139.242 45.1515 139.281 44.5769V38.2092C139.287 37.7724 139.464 37.3553 139.775 37.0484C140.086 36.7414 140.505 36.5693 140.942 36.5693C141.379 36.5693 141.799 36.7414 142.11 37.0484C142.421 37.3553 142.598 37.7724 142.604 38.2092V44.5769C142.625 45.3098 142.496 46.0393 142.225 46.7207C141.954 47.402 141.547 48.0209 141.028 48.5394C140.51 49.0578 139.891 49.465 139.209 49.7358C138.528 50.0066 137.798 50.1355 137.065 50.1144Z" fill="#1E81CE"/>
<path d="M122.389 47.0691H121.836L95.8082 36.5485C94.6818 36.1197 93.7099 35.3628 93.0185 34.3758C92.327 33.3887 91.9476 32.2169 91.9295 31.012C91.8709 29.8269 92.1525 28.6498 92.7412 27.6196C93.3299 26.5894 94.2011 25.7491 95.252 25.1977L100.515 22.7057C100.72 22.5675 100.961 22.4937 101.208 22.4937C101.454 22.4937 101.696 22.5675 101.9 22.7057L122.668 29.6277L143.432 22.7057C143.988 22.429 144.263 22.7057 144.817 22.7057L150.08 25.1977C151.169 25.7026 152.073 26.5334 152.669 27.5752C153.264 28.6169 153.521 29.818 153.403 31.012C153.385 32.2169 153.005 33.3887 152.314 34.3758C151.622 35.3628 150.651 36.1197 149.524 36.5485L127.928 45.1315L123.496 47.0691H122.389ZM101.069 26.0289L96.6367 28.2432C96.142 28.444 95.7191 28.7889 95.423 29.2331C95.127 29.6774 94.9714 30.2004 94.9766 30.7342C95.0278 31.2539 95.206 31.7529 95.4954 32.1875C95.7849 32.6221 96.1769 32.9788 96.6367 33.2263L122.111 43.4692L125.99 42.086L147.586 33.503C148.082 33.3028 148.505 32.9581 148.802 32.5138C149.098 32.0695 149.254 31.5461 149.249 31.012C149.292 30.4703 149.151 29.93 148.849 29.4779C148.548 29.0259 148.103 28.6884 147.586 28.5199L143.432 26.0289L122.943 32.9496H121.836L101.069 26.0289Z" fill="#1E81CE"/>
<path d="M122.389 74.7534C120.624 74.7063 118.865 74.5213 117.129 74.2003C113.152 73.0183 109.506 70.927 106.478 68.092C103.45 65.2569 101.124 61.756 99.6841 57.8665C97.6929 53.0356 96.658 47.8643 96.6367 42.6394V39.5939C96.6367 38.2094 96.9148 36.5484 96.9148 35.4406V35.1639C97.1927 34.3341 98.0215 33.503 98.8528 33.781C99.2543 33.9234 99.6023 34.1855 99.85 34.5321C100.098 34.8786 100.233 35.2928 100.237 35.7186C99.9854 36.994 99.8921 38.2956 99.9595 39.5939V42.3627C99.8871 47.1214 100.831 51.8408 102.729 56.2055C104.03 59.5903 106.074 62.6404 108.71 65.1315C111.346 67.6225 114.507 69.4913 117.96 70.6003C119.322 70.9213 120.713 71.1071 122.111 71.1548C125.659 71.1248 129.121 70.0669 132.079 68.1093C139.834 63.1262 144.542 53.4367 144.542 42.3627C144.519 40.2292 144.334 38.1005 143.988 35.9951C143.916 35.5553 144.022 35.1051 144.282 34.7431C144.541 34.381 144.934 34.1365 145.373 34.0631C145.813 33.9898 146.263 34.0936 146.627 34.3517C146.99 34.6099 147.236 35.0014 147.311 35.4406C147.643 37.7338 147.828 40.0459 147.864 42.3627C147.864 54.5432 142.325 65.6172 133.742 71.1548C130.439 73.5352 126.461 74.7963 122.389 74.7534Z" fill="#1E81CE"/>
<path d="M22.4286 27.69C20.6055 27.7079 18.7971 27.3621 17.1093 26.6727C15.4215 25.9834 13.8882 24.9644 12.599 23.6754C11.3099 22.3863 10.2908 20.8532 9.60155 19.1656C8.91226 17.478 8.56655 15.6699 8.58466 13.8472C8.56653 12.0244 8.91222 10.2163 9.60151 8.52868C10.2908 6.84109 11.3098 5.30791 12.599 4.01888C13.8881 2.72984 15.4215 1.71084 17.1093 1.02152C18.7971 0.332189 20.6055 -0.0136191 22.4286 0.00433033C24.2519 -0.0136682 26.0603 0.332096 27.7483 1.02139C29.4362 1.71068 30.9697 2.72966 32.2589 4.01868C33.5482 5.30771 34.5673 6.8409 35.2568 8.52851C35.9462 10.2161 36.292 12.0243 36.274 13.8472C36.2634 17.5152 34.8013 21.0301 32.2071 23.6238C29.6129 26.2176 26.0974 27.6794 22.4286 27.69ZM22.4286 3.60427C20.3476 3.60443 18.3133 4.22158 16.5831 5.37768C14.8528 6.53378 13.5043 8.17691 12.7081 10.0993C11.9118 12.0216 11.7036 14.1369 12.1098 16.1776C12.5159 18.2182 13.5182 20.0927 14.9898 21.5638C16.4615 23.035 18.3364 24.0368 20.3775 24.4425C22.4186 24.8483 24.5342 24.6398 26.4568 23.8434C28.3794 23.047 30.0226 21.6985 31.1787 19.9684C32.3347 18.2383 32.9517 16.2042 32.9515 14.1236C32.9058 11.3477 31.7824 8.69828 29.8187 6.73531C27.8551 4.77234 25.2051 3.64956 22.4286 3.60427Z" fill="#1E81CE"/>
<path d="M150.356 136.768C148.658 136.768 146.998 136.264 145.587 135.321C144.175 134.378 143.074 133.038 142.425 131.47C141.775 129.902 141.605 128.176 141.936 126.511C142.267 124.846 143.085 123.317 144.285 122.116C145.486 120.916 147.015 120.099 148.681 119.767C150.346 119.436 152.072 119.606 153.64 120.256C155.209 120.906 156.55 122.006 157.493 123.417C158.436 124.829 158.939 126.488 158.939 128.186C158.957 129.318 158.747 130.442 158.322 131.491C157.897 132.54 157.266 133.493 156.465 134.294C155.664 135.094 154.711 135.726 153.662 136.151C152.612 136.576 151.488 136.785 150.356 136.768ZM150.356 122.925C149.315 122.925 148.298 123.233 147.433 123.811C146.568 124.389 145.893 125.21 145.495 126.171C145.096 127.133 144.992 128.19 145.195 129.211C145.398 130.231 145.899 131.168 146.635 131.904C147.37 132.64 148.308 133.141 149.328 133.344C150.349 133.547 151.407 133.443 152.368 133.045C153.329 132.647 154.151 131.973 154.73 131.108C155.308 130.243 155.616 129.226 155.617 128.186C155.64 127.489 155.521 126.794 155.265 126.145C155.009 125.496 154.622 124.906 154.129 124.413C153.636 123.92 153.046 123.533 152.397 123.277C151.748 123.021 151.053 122.901 150.356 122.925Z" fill="#1E81CE"/>
</svg>
