<svg width="226" height="197" viewBox="0 0 226 197" fill="none" xmlns="http://www.w3.org/2000/svg">
<path d="M16.2967 20.1188C16.2967 17.2434 18.6387 14.9015 21.5144 14.9015C24.39 14.9015 26.7321 17.2434 26.7321 20.1188C26.7321 22.9942 24.3901 25.3361 21.5144 25.3361C18.6388 25.3361 16.2967 22.9942 16.2967 20.1188ZM38.4225 25.3361C41.2981 25.3361 43.6402 22.9942 43.6402 20.1188C43.6402 17.2434 41.2982 14.9015 38.4225 14.9015C35.5469 14.9015 33.2048 17.2434 33.2048 20.1188C33.2048 22.9942 35.5469 25.3361 38.4225 25.3361ZM119.019 23.8835H174.566C176.641 23.8835 178.331 22.2037 178.331 20.1187C178.331 18.0338 176.641 16.354 174.566 16.354H119.019C116.944 16.354 115.254 18.0437 115.254 20.1187C115.254 22.1938 116.944 23.8835 119.019 23.8835ZM55.319 25.3361C58.1946 25.3361 60.5367 22.9942 60.5367 20.1188C60.5367 17.2434 58.1947 14.9015 55.319 14.9015C52.4434 14.9015 50.1013 17.2434 50.1013 20.1188C50.1013 22.9942 52.4434 25.3361 55.319 25.3361ZM44.9924 114.85C44.9924 85.3353 69.0057 61.3245 98.5229 61.3245C128.041 61.3245 152.053 85.3358 152.053 114.85C152.053 144.366 128.04 168.376 98.5229 168.376C69.0052 168.376 44.9924 144.365 44.9924 114.85ZM138.941 92.9043H125.808C127.172 98.497 128.022 104.613 128.269 111.086H144.377C143.843 104.544 141.936 98.3884 138.951 92.9043H138.941ZM81.6264 144.326C82.1995 145.689 82.8122 147.013 83.4644 148.258C86.676 154.395 90.6485 158.515 94.7594 160.106V144.326H81.6264ZM94.7595 136.796V118.615H76.3396C76.5965 125.038 77.5254 131.203 79.0571 136.796H94.7694H94.7595ZM113.585 148.268C114.237 147.013 114.85 145.699 115.423 144.336H102.29V160.116C106.401 158.525 110.373 154.405 113.585 148.268ZM118.002 136.796C119.534 131.203 120.463 125.047 120.72 118.615H102.3V136.796H118.012H118.002ZM125.809 136.796H138.942C141.936 131.312 143.833 125.156 144.367 118.615H128.259C128.022 125.087 127.172 131.203 125.799 136.796H125.809ZM118.002 92.9028H102.29V111.084H120.71C120.453 104.661 119.524 98.4955 117.992 92.9028H118.002ZM115.423 85.3732C114.85 84.0096 114.237 82.6855 113.585 81.4405C110.373 75.3042 106.401 71.1838 102.29 69.5929V85.3732H115.423ZM83.464 81.4405C82.8118 82.6954 82.1991 84.0095 81.626 85.3732H94.7591V69.5929C90.6482 71.1838 86.6756 75.3042 83.464 81.4405ZM79.0467 92.9025C77.515 98.4952 76.5861 104.651 76.3292 111.084H94.7492V92.9025H79.0369H79.0467ZM71.24 92.9025H58.1069C55.1126 98.3867 53.2152 104.543 52.6817 111.084H68.7894C69.0266 104.612 69.8764 98.4952 71.2501 92.9025H71.24ZM52.6817 118.613C53.2153 125.154 55.1226 131.31 58.1069 136.795H71.24C69.8763 131.202 69.0265 125.085 68.7794 118.613H52.6717H52.6817ZM79.8669 156.893C77.3865 153.366 75.2323 149.127 73.5029 144.335H63.2355C67.7218 149.69 73.404 154.018 79.857 156.893H79.8669ZM133.802 144.324H123.535C121.805 149.117 119.651 153.356 117.171 156.883C123.634 154.008 129.316 149.68 133.792 144.324H133.802ZM117.181 72.8131C119.661 76.3406 121.815 80.5797 123.545 85.372H133.812C129.326 80.0163 123.643 75.6885 117.19 72.8131H117.181ZM63.2353 85.372H73.5027C75.232 80.5797 77.3864 76.3406 79.8666 72.8131C73.4038 75.6885 67.7216 80.0166 63.2451 85.372H63.2353ZM225.992 156.339C225.992 178.76 207.75 197 185.328 197H16.5327C7.42141 197 0 189.589 0 180.479L0.00988442 16.5212C0.00988442 7.41067 7.42142 0 16.5426 0H180.514C189.625 0 197.046 7.41092 197.046 16.5212V117.409C213.777 122.448 226 138.001 226 156.352L225.992 156.339ZM7.5393 16.5217V32.707H189.507V16.5217C189.507 11.5615 185.475 7.52981 180.515 7.52981L16.5335 7.51993C11.5728 7.51993 7.54081 11.5516 7.54081 16.5118L7.5393 16.5217ZM161.778 189.472C157.954 186.745 154.624 183.375 151.946 179.522H21.2566C19.1814 179.522 17.4915 177.842 17.4915 175.757V53.9523C17.4915 51.8772 19.1813 50.1875 21.2566 50.1875H175.792C177.867 50.1875 179.557 51.8772 179.557 53.9523V116.094C181.444 115.827 183.371 115.679 185.328 115.679C186.741 115.679 188.134 115.748 189.498 115.896V40.2365H7.5398V180.472C7.5398 185.432 11.5718 189.464 16.5325 189.464H161.768L161.778 189.472ZM172.026 57.716H25.0222V171.993H147.796C145.78 167.171 144.663 161.884 144.663 156.341C144.663 138.574 156.116 123.436 172.015 117.921V57.7148L172.026 57.716ZM218.46 156.339C218.46 138.069 203.598 123.207 185.325 123.207C167.052 123.207 152.19 138.068 152.19 156.339C152.19 174.61 167.052 189.472 185.325 189.472C203.598 189.472 218.46 174.611 218.46 156.339ZM211.671 143.662C211.671 145.905 210.792 148.02 209.211 149.611L183.862 174.957C182.271 176.548 180.167 177.417 177.913 177.417C175.67 177.417 173.555 176.538 171.964 174.957C171.648 174.641 171.351 174.295 171.085 173.929L160.798 160.985C157.912 157.359 158.525 152.072 162.141 149.187C163.624 148.011 165.472 147.359 167.369 147.359C169.948 147.359 172.34 148.515 173.951 150.53L178.625 156.41L197.322 137.715C198.913 136.124 201.017 135.254 203.271 135.254C205.514 135.254 207.629 136.134 209.22 137.715C210.811 139.305 211.68 141.41 211.68 143.663L211.671 143.662ZM204.141 143.662C204.141 143.494 204.092 143.257 203.884 143.049C203.667 142.832 203.43 142.792 203.272 142.792C203.104 142.792 202.867 142.832 202.659 143.049L180.978 164.729C180.217 165.489 179.169 165.875 178.102 165.825C177.025 165.766 176.037 165.252 175.365 164.412L168.072 155.233C167.845 154.946 167.548 154.907 167.39 154.907C167.193 154.907 167.015 154.966 166.857 155.094C166.481 155.391 166.422 155.934 166.718 156.31L177.065 169.333C177.114 169.392 177.154 169.462 177.203 169.521C177.233 169.57 177.272 169.61 177.302 169.649C177.519 169.857 177.756 169.906 177.915 169.906C178.083 169.906 178.32 169.867 178.527 169.649L203.876 144.303C204.093 144.086 204.133 143.848 204.133 143.69L204.141 143.662Z" fill="#2ECAB3"/>
</svg>
