<svg width="226" height="227" viewBox="0 0 226 227" fill="none" xmlns="http://www.w3.org/2000/svg">
<path d="M73.7343 148.357C63.4292 151.199 58.9874 158.839 61.6525 169.677L62.0078 170.921H129.524V156.53C129.524 154.042 128.991 151.91 127.747 150.311C125.792 148.001 123.483 147.291 120.818 146.758C116.553 145.869 113.711 144.092 112.822 141.783C111.756 138.94 113.533 135.564 115.132 133.432C120.285 126.503 122.239 118.685 121.528 108.025C120.995 101.451 117.797 95.7654 112.467 92.2119C107.137 88.6585 100.563 87.7701 94.1667 89.9022C88.3034 91.8566 83.3286 96.8314 80.8412 103.405C77.8207 111.223 78.3538 120.284 82.4402 127.391C86.5267 134.676 89.5471 140.006 88.6588 142.316C87.7704 144.625 81.9072 146.225 73.7343 148.357Z" fill="#2ECAB3"/>
<path d="M132.544 183.536C132.544 183.359 132.544 183.181 132.544 183.181H15.8129C14.7469 183.181 14.0362 182.47 14.0362 181.404V45.6619C14.0362 44.5959 14.7469 43.8852 15.8129 43.8852H181.582C182.648 43.8852 183.358 44.5959 183.358 45.6619V119.396L194.552 125.615C194.907 125.792 195.085 125.97 195.44 125.97C196.151 126.325 196.862 126.681 197.395 127.036V15.6352C197.395 6.92925 190.288 0 181.759 0H15.6352C6.92924 0 0 7.10692 0 15.6352V181.582C0 190.288 7.10692 197.217 15.6352 197.217H136.097C135.742 196.329 135.387 195.618 135.209 194.73C133.788 191.176 132.899 187.445 132.544 183.536ZM160.794 17.5896C164.17 17.5896 166.835 20.2547 166.835 23.6305C166.835 27.0063 164.17 29.6714 160.794 29.6714C157.418 29.6714 154.753 27.0063 154.753 23.6305C154.753 20.4324 157.418 17.5896 160.794 17.5896ZM133.788 17.5896C137.164 17.5896 139.829 20.2547 139.829 23.6305C139.829 27.0063 137.164 29.6714 133.788 29.6714C130.412 29.6714 127.747 27.0063 127.747 23.6305C127.747 20.4324 130.59 17.5896 133.788 17.5896ZM106.959 17.5896C110.335 17.5896 113 20.2547 113 23.6305C113 27.0063 110.335 29.6714 106.959 29.6714C103.583 29.6714 100.918 27.0063 100.918 23.6305C100.918 20.4324 103.583 17.5896 106.959 17.5896Z" fill="#2ECAB3"/>
<path d="M226 137.341H224.224C214.985 137.164 205.746 135.032 197.217 131.123C195.974 130.59 194.908 130.057 193.664 129.346C193.131 129.168 192.598 128.813 192.065 128.458L183.181 123.483L180.694 122.062L179.628 122.595L169.145 128.458C159.373 133.966 148.357 136.986 136.986 137.341H135.209V177.14C135.209 178.029 135.209 178.739 135.209 179.628C135.209 180.694 135.387 181.937 135.565 183.181C135.92 186.734 136.809 190.288 138.052 193.664C138.408 194.907 138.941 195.973 139.474 197.217C146.225 212.497 160.439 224.046 177.673 226.533L180.516 226.889L183.359 226.533C207.522 222.98 225.823 201.837 225.823 177.318V139.118L226 137.341ZM179.095 139.118V212.497C162.216 209.477 149.601 194.552 149.601 177.318V150.134C159.018 148.535 168.079 145.337 176.252 140.717L179.095 139.118Z" fill="#2ECAB3"/>
</svg>
