<svg width="617" height="135" viewBox="0 0 617 135" fill="none" xmlns="http://www.w3.org/2000/svg">
<g style="mix-blend-mode:color">
<path d="M165.306 94.7407H167.306L171.206 111.841L177.106 94.7407H178.406L184.506 111.541L188.706 94.7407H190.506L185.606 114.241H183.606L177.706 97.5407L171.906 114.241H169.806L165.306 94.7407ZM205.806 103.241H218.406C218.406 98.7407 216.306 96.4407 212.506 96.4407C208.206 96.5407 206.006 98.7407 205.806 103.241ZM212.506 94.7407C217.606 94.7407 220.306 97.6407 220.306 103.441C220.306 103.841 220.306 104.241 220.306 104.741H206.006C206.006 109.741 208.506 112.341 213.806 112.341C215.906 112.341 217.906 112.041 219.506 111.541V113.241C217.806 113.741 215.906 114.041 213.806 114.041C207.506 114.041 203.906 110.741 203.906 103.941C204.006 97.8407 206.906 94.7407 212.506 94.7407ZM237.106 112.141C239.106 112.441 240.806 112.641 242.206 112.641C247.106 112.641 249.406 109.841 249.406 104.241C249.406 99.3407 247.206 97.0407 242.706 97.0407C240.906 97.0407 239.006 97.3407 236.906 97.9407L237.106 112.141ZM235.306 87.9407H237.306V95.9407C239.506 95.4407 241.506 95.1407 243.106 95.1407C248.806 95.1407 251.506 98.1407 251.506 104.641C251.506 111.341 248.606 114.941 242.706 114.941C240.106 114.941 237.706 114.641 235.506 114.241L235.306 87.9407ZM299.406 113.741C297.806 114.041 296.106 114.241 294.406 114.241C288.106 114.241 284.706 110.841 284.706 103.941C284.706 97.7407 287.706 94.4407 294.406 94.4407C296.206 94.4407 297.806 94.5407 299.406 94.9407V96.6407C297.706 96.3407 296.106 96.1407 294.706 96.1407C289.706 96.1407 287.106 98.6407 287.106 103.941C287.106 109.641 289.606 112.341 294.706 112.341C296.306 112.341 297.706 112.241 299.406 111.841V113.741ZM321.806 112.941C326.406 112.941 328.606 110.141 328.606 104.641C328.606 99.1407 326.406 96.4407 321.806 96.4407C317.206 96.4407 315.006 99.0407 315.006 104.641C314.906 110.041 317.306 112.941 321.806 112.941ZM313.106 104.641C313.106 98.2407 316.006 94.5407 321.806 94.5407C327.606 94.5407 330.506 97.8407 330.506 104.641C330.506 111.041 327.606 114.741 321.806 114.741C316.006 114.441 313.106 111.241 313.106 104.641ZM345.906 114.241V94.7407H347.206L347.506 97.2407C349.906 95.5407 352.206 94.7407 354.506 94.7407C359.106 94.7407 361.306 96.8407 361.306 100.841V114.241H359.306V100.841C359.306 98.0407 357.606 96.5407 354.306 96.5407C352.106 96.5407 349.806 97.3407 347.606 99.0407V114.441H345.806L345.906 114.241ZM377.006 91.7407H378.306L378.606 94.7407H384.306V96.4407H378.806V108.941C378.806 111.441 379.606 112.741 381.406 112.741H384.206V114.441H381.606C378.606 114.441 377.006 112.641 377.006 109.341V91.7407ZM398.606 114.241V94.7407H400.006L400.306 98.0407C402.306 95.9407 404.406 94.7407 406.506 94.7407V96.3407C404.306 96.3407 402.206 97.5407 400.606 99.7407V114.441L398.606 114.241ZM428.106 112.941C432.706 112.941 434.906 110.141 434.906 104.641C434.906 99.1407 432.706 96.4407 428.106 96.4407C423.506 96.4407 421.306 99.0407 421.306 104.641C421.106 110.041 423.406 112.941 428.106 112.941ZM419.206 104.641C419.206 98.2407 422.106 94.5407 427.906 94.5407C433.706 94.5407 436.606 97.8407 436.606 104.641C436.606 111.041 433.706 114.741 427.906 114.741C422.306 114.441 419.206 111.241 419.206 104.641ZM453.906 114.241H451.906V87.7407H453.906V114.241ZM491.306 111.541C493.306 112.241 495.006 112.441 496.406 112.441C501.306 112.441 503.606 109.641 503.606 104.141C503.606 99.2407 501.206 96.6407 496.406 96.6407C494.706 96.6407 493.006 96.7407 491.306 97.0407V111.541ZM489.406 95.4407C491.506 94.9407 494.006 94.7407 496.506 94.7407C502.606 94.7407 505.406 97.7407 505.406 103.841C505.406 110.641 502.506 114.241 496.506 114.241C494.906 114.241 493.206 113.941 491.406 113.441V121.441H489.406V95.4407ZM527.206 104.641C523.506 104.641 521.706 105.941 521.706 108.541C521.706 111.041 523.306 112.341 526.306 112.341C528.506 112.341 530.806 111.841 532.706 110.341V104.941C530.606 104.741 528.806 104.641 527.206 104.641ZM519.706 108.841C519.706 105.041 522.206 103.041 527.206 103.041C529.006 103.041 530.806 103.141 532.906 103.341V100.941C532.906 98.0407 531.106 96.4407 527.506 96.4407C525.406 96.4407 523.306 96.7407 521.406 97.2407V95.4407C523.506 94.9407 525.506 94.6407 527.506 94.6407C532.406 94.6407 534.706 96.7407 534.706 100.741V114.141H533.506L533.106 112.141C530.706 113.541 528.506 114.141 526.306 114.141C521.806 114.241 519.706 112.541 519.706 108.841ZM550.506 114.241V94.7407H551.806L552.106 97.2407C554.506 95.5407 556.806 94.7407 559.106 94.7407C563.706 94.7407 565.906 96.8407 565.906 100.841V114.241H563.906V100.841C563.906 98.0407 562.206 96.5407 558.906 96.5407C556.706 96.5407 554.406 97.3407 552.206 99.0407V114.441L550.506 114.241ZM582.906 103.241H595.506C595.406 98.7407 593.406 96.4407 589.606 96.4407C585.306 96.5407 583.106 98.7407 582.906 103.241ZM589.606 94.7407C594.706 94.7407 597.406 97.6407 597.406 103.441C597.406 103.841 597.406 104.241 597.406 104.741H583.106C583.106 109.741 585.706 112.341 590.906 112.341C593.006 112.341 595.006 112.041 596.606 111.541V113.241C594.906 113.741 593.006 114.041 590.906 114.041C584.606 114.041 581.006 110.741 581.006 103.941C581.006 97.8407 583.906 94.7407 589.606 94.7407ZM614.606 114.241H612.606V87.7407H614.606V114.241Z" fill="white" stroke="white" stroke-width="4" stroke-miterlimit="10"/>
<path d="M199.406 57.0408V35.2408C199.406 32.6408 198.506 30.9408 196.406 29.9408C194.406 29.1408 191.406 28.3408 187.306 28.3408H178.006V63.2408H186.906C191.606 63.2408 194.906 62.9408 196.906 62.3408C198.506 61.4408 199.406 59.6408 199.406 57.0408ZM211.706 35.4408V57.1408C211.706 63.0408 209.906 67.4408 206.406 69.3408C202.806 71.4408 196.306 72.5408 187.306 72.5408H165.306V19.1408H187.106C195.806 19.1408 202.106 20.0408 205.906 22.5408C209.906 24.7408 211.706 29.1408 211.706 35.4408ZM233.606 72.4408H221.906V32.8408H233.606V72.4408ZM233.606 28.0408H221.906V18.5408H233.606V28.0408ZM269.506 41.7408H265.406C262.206 41.7408 259.906 42.1408 258.206 43.3408C256.506 44.2408 255.706 46.1408 255.706 48.4408V72.4408H244.006V32.8408H255.106V39.6408C255.106 37.6408 256.306 35.9408 258.306 34.3408C260.406 32.7408 262.806 31.8408 264.906 31.8408H269.106L269.506 41.7408ZM300.606 48.9408V43.2408C300.606 42.0408 300.206 41.1408 299.006 40.3408C298.206 39.8408 296.206 39.4408 293.906 39.4408C291.106 39.4408 289.206 39.7408 288.206 40.3408C287.406 40.8408 286.606 42.0408 286.606 43.2408V48.9408H300.606ZM311.806 55.7408H286.906V59.3408C286.906 61.5408 287.606 63.1408 289.106 64.2408C290.706 65.4408 293.606 65.8408 297.706 65.8408C301.506 65.8408 305.906 65.3408 310.706 64.1408V71.9408C305.806 72.8408 300.606 73.5408 295.706 73.5408C282.006 73.5408 275.406 69.2408 275.406 60.5408V46.3408C275.406 41.3408 277.006 37.6408 280.106 35.4408C283.306 33.3408 288.106 32.2408 294.406 32.2408C300.306 32.2408 304.906 33.1408 307.706 35.2408C310.606 37.2408 312.006 40.9408 312.006 46.3408L311.806 55.7408ZM352.606 71.8408C348.006 72.6408 343.706 73.1408 339.406 73.1408C337.406 73.1408 335.806 73.1408 334.706 73.0408C333.506 73.0408 332.106 72.9408 330.206 72.6408C328.406 72.3408 327.006 72.1408 325.906 71.4408C325.006 70.9408 323.806 70.0408 322.706 69.2408C321.806 68.4408 320.906 67.0408 320.206 65.4408C319.806 63.8408 319.506 61.8408 319.506 59.7408V46.3408C319.506 44.3408 319.606 42.6408 320.006 41.2408C320.406 39.6408 320.906 38.4408 321.706 37.5408C322.206 36.6408 323.306 35.7408 324.506 34.9408C325.706 34.2408 326.706 33.7408 327.706 33.3408C328.606 33.0408 329.906 32.8408 331.606 32.5408C333.306 32.4408 334.506 32.2408 335.506 32.2408C336.406 32.2408 338.006 32.2408 339.806 32.2408C342.706 32.2408 346.406 32.6408 351.506 33.8408V41.7408C346.006 40.3408 342.006 39.7408 338.706 39.7408C333.406 39.7408 330.706 41.5408 330.706 45.2408V59.4408C330.706 63.5408 333.606 65.6408 339.406 65.6408C342.206 65.6408 346.106 65.1408 351.806 63.8408L352.606 71.8408ZM385.106 72.8408C382.906 73.1408 380.606 73.2408 378.806 73.2408C377.006 73.2408 375.406 73.2408 374.106 73.1408C372.806 73.0408 371.306 72.7408 369.906 72.3408C368.606 71.9408 367.306 71.1408 366.306 70.3408C365.506 69.5408 364.606 68.3408 364.106 66.7408C363.606 65.1408 363.306 63.3408 363.306 61.2408V40.1408H355.406V32.7408H363.306V21.0408H375.006V32.4408H385.706V39.8408H375.006V58.5408C375.006 61.3408 375.406 63.1408 376.206 64.0408C377.006 64.9408 378.806 65.3408 381.306 65.3408C382.106 65.3408 383.506 65.2408 385.506 64.9408L385.106 72.8408Z" fill="white"/>
<path d="M424.406 51.3408L418.506 32.6408H418.206L412.106 51.3408H424.406ZM443.206 72.4408H431.206L426.906 59.2408H409.106L404.806 72.4408H393.506L411.406 22.7408H425.506L443.206 72.4408ZM473.406 61.2408V46.2408C473.406 44.4408 473.006 43.0408 472.006 42.4408C471.106 41.7408 469.006 41.5408 465.906 41.5408C462.606 41.5408 460.606 41.8408 459.806 42.4408C459.106 43.1408 458.706 44.5408 458.706 46.7408V60.8408C458.706 62.8408 459.106 64.2408 459.806 65.0408C460.506 65.8408 462.406 66.1408 465.306 66.1408C468.906 66.1408 471.006 65.8408 472.006 65.2408C472.706 64.3408 473.406 63.2408 473.406 61.2408ZM484.006 72.4408H473.506V68.2408C472.706 69.6408 471.906 70.7408 471.306 71.2408C470.606 71.7408 469.606 72.3408 468.106 72.6408C466.706 72.9408 464.806 73.0408 462.306 73.0408C456.206 73.0408 452.006 72.2408 450.106 70.5408C448.306 68.9408 447.206 65.5408 447.206 60.0408V45.7408C447.206 41.5408 448.306 38.6408 450.606 37.0408C452.806 35.4408 456.406 34.5408 461.506 34.5408C465.106 34.5408 467.406 34.8408 469.006 35.4408C470.606 36.0408 471.806 37.4408 473.106 39.3408V18.8408H484.006V72.4408ZM549.906 72.4408H539.006V46.7408C539.006 44.5408 538.706 43.0408 538.306 42.4408C537.806 41.9408 536.306 41.5408 534.006 41.5408C531.006 41.5408 529.306 41.8408 528.606 42.4408C527.906 42.9408 527.706 44.4408 527.706 46.7408V72.4408H516.806V46.7408C516.806 44.5408 516.506 43.0408 516.106 42.4408C515.606 41.9408 514.106 41.5408 511.806 41.5408C508.806 41.5408 507.106 41.8408 506.406 42.4408C505.706 42.9408 505.506 44.4408 505.506 46.7408V72.4408H494.406V35.3408H505.406V39.8408C506.106 36.4408 509.706 34.5408 516.106 34.5408C519.506 34.5408 522.006 34.9408 523.906 35.9408C525.606 36.7408 526.806 38.1408 527.306 40.1408C527.806 38.3408 529.006 36.8408 530.706 35.9408C532.406 35.1408 535.006 34.6408 538.606 34.6408C543.306 34.6408 546.506 35.4408 548.106 37.2408C549.706 38.9408 550.306 41.7408 550.306 45.2408L549.906 72.4408ZM570.806 72.4408H559.906V35.3408H570.806V72.4408ZM570.806 30.9408H559.906V21.8408H570.806V30.9408ZM615.506 72.4408H604.606V46.7408C604.606 44.7408 604.306 43.3408 603.706 42.5408C603.006 41.8408 601.506 41.6408 599.006 41.6408C595.806 41.6408 593.906 41.9408 593.206 42.5408C592.406 43.2408 592.006 44.5408 592.006 46.7408V72.4408H581.106V35.3408H591.906V39.8408C592.706 36.4408 596.606 34.5408 603.406 34.5408C608.106 34.5408 611.406 35.3408 613.306 37.1408C615.006 38.8408 616.106 41.6408 616.106 45.1408L615.506 72.4408Z" fill="white"/>
<path d="M19.199 48.0918L38.398 67.2908L19.199 86.4898L36.5 103.791L74.898 65.3928L38.398 28.8928L19.199 48.0918Z" fill="white"/>
<path d="M38.4083 105.679L76.8062 67.2808L72.9371 63.4118L34.5393 101.81L38.4083 105.679Z" fill="#035A75"/>
<path d="M48.034 19.2568L96.068 67.2908L48.034 115.325L65.335 132.626L132.568 65.3928L67.233 0.0577661L48.034 19.2568Z" fill="white"/>
<path d="M67.2405 134.416L134.473 67.1824L130.604 63.3134L63.3715 130.547L67.2405 134.416Z" fill="#035A75"/>
</g>
</svg>
